<mxfile host="Electron" modified="2024-06-01T19:40:14.363Z" agent="Mozilla/5.0 (Windows NT 10.0; Win64; x64) AppleWebKit/537.36 (KHTML, like Gecko) draw.io/24.2.5 Chrome/120.0.6099.109 Electron/28.1.0 Safari/537.36" etag="MTCakZfnWoCOGSGEFo_h" version="24.2.5" type="device">
  <diagram id="C5RBs43oDa-KdzZeNtuy" name="Page-1">
    <mxGraphModel dx="3874" dy="1196" grid="0" gridSize="10" guides="1" tooltips="1" connect="1" arrows="1" fold="1" page="1" pageScale="1" pageWidth="1800" pageHeight="2500" background="#ffffff" math="0" shadow="0">
      <root>
        <mxCell id="WIyWlLk6GJQsqaUBKTNV-0" />
        <mxCell id="WIyWlLk6GJQsqaUBKTNV-1" parent="WIyWlLk6GJQsqaUBKTNV-0" />
        <mxCell id="h2Y3JZYVkYN6LVySSPrw-0" style="edgeStyle=orthogonalEdgeStyle;rounded=0;orthogonalLoop=1;jettySize=auto;html=1;exitX=0.5;exitY=0;exitDx=0;exitDy=0;textShadow=0;" parent="WIyWlLk6GJQsqaUBKTNV-1" edge="1">
          <mxGeometry relative="1" as="geometry">
            <mxPoint x="-1535.2857142857142" y="272" as="targetPoint" />
            <mxPoint x="-1535" y="282.0000000000002" as="sourcePoint" />
          </mxGeometry>
        </mxCell>
        <mxCell id="5QwQG5rDsZmuha2iQWHT-11" style="edgeStyle=orthogonalEdgeStyle;rounded=0;orthogonalLoop=1;jettySize=auto;html=1;endArrow=none;endFill=0;strokeWidth=3;strokeColor=#000000;textShadow=0;" parent="WIyWlLk6GJQsqaUBKTNV-1" source="SudFrf4cLflyzT05pDyT-9" target="5QwQG5rDsZmuha2iQWHT-5" edge="1">
          <mxGeometry relative="1" as="geometry">
            <Array as="points">
              <mxPoint x="-686" y="434" />
              <mxPoint x="-686" y="434" />
            </Array>
          </mxGeometry>
        </mxCell>
        <mxCell id="5QwQG5rDsZmuha2iQWHT-14" style="edgeStyle=orthogonalEdgeStyle;rounded=0;orthogonalLoop=1;jettySize=auto;html=1;strokeWidth=3;endArrow=none;endFill=0;strokeColor=#000000;textShadow=0;" parent="WIyWlLk6GJQsqaUBKTNV-1" source="SudFrf4cLflyzT05pDyT-9" target="SudFrf4cLflyzT05pDyT-24" edge="1">
          <mxGeometry relative="1" as="geometry">
            <Array as="points">
              <mxPoint x="-1148" y="306" />
              <mxPoint x="-1148" y="306" />
            </Array>
          </mxGeometry>
        </mxCell>
        <mxCell id="SudFrf4cLflyzT05pDyT-9" value="Builder" style="swimlane;fontStyle=1;childLayout=stackLayout;horizontal=1;startSize=26;fillColor=none;horizontalStack=0;resizeParent=1;resizeParentMax=0;resizeLast=0;collapsible=1;marginBottom=0;whiteSpace=wrap;html=1;rounded=1;shadow=0;dashed=0;strokeColor=#000000;strokeWidth=3;align=center;verticalAlign=middle;arcSize=4;fontFamily=Helvetica;fontSize=15;fontColor=#000000;labelBorderColor=none;labelBackgroundColor=none;textShadow=0;" parent="WIyWlLk6GJQsqaUBKTNV-1" vertex="1">
          <mxGeometry x="-834" y="198" width="302" height="190" as="geometry">
            <mxRectangle x="-536" y="518" width="73" height="30" as="alternateBounds" />
          </mxGeometry>
        </mxCell>
        <mxCell id="SudFrf4cLflyzT05pDyT-13" value="+email : String" style="text;strokeColor=none;fillColor=none;align=left;verticalAlign=top;spacingLeft=4;spacingRight=4;overflow=hidden;rotatable=0;points=[[0,0.5],[1,0.5]];portConstraint=eastwest;whiteSpace=wrap;html=1;fontFamily=Helvetica;fontSize=15;fontColor=#000000;fontStyle=1;labelBorderColor=none;labelBackgroundColor=none;textShadow=0;" parent="SudFrf4cLflyzT05pDyT-9" vertex="1">
          <mxGeometry y="26" width="302" height="32" as="geometry" />
        </mxCell>
        <mxCell id="5QwQG5rDsZmuha2iQWHT-2" value="+username : String" style="text;strokeColor=none;fillColor=none;align=left;verticalAlign=top;spacingLeft=4;spacingRight=4;overflow=hidden;rotatable=0;points=[[0,0.5],[1,0.5]];portConstraint=eastwest;whiteSpace=wrap;html=1;fontFamily=Helvetica;fontSize=15;fontColor=#000000;fontStyle=1;labelBorderColor=none;labelBackgroundColor=none;textShadow=0;" parent="SudFrf4cLflyzT05pDyT-9" vertex="1">
          <mxGeometry y="58" width="302" height="32" as="geometry" />
        </mxCell>
        <mxCell id="SudFrf4cLflyzT05pDyT-12" value="+password : String" style="text;strokeColor=none;fillColor=none;align=left;verticalAlign=top;spacingLeft=4;spacingRight=4;overflow=hidden;rotatable=0;points=[[0,0.5],[1,0.5]];portConstraint=eastwest;whiteSpace=wrap;html=1;fontFamily=Helvetica;fontSize=15;fontColor=#000000;fontStyle=1;labelBorderColor=none;labelBackgroundColor=none;textShadow=0;" parent="SudFrf4cLflyzT05pDyT-9" vertex="1">
          <mxGeometry y="90" width="302" height="35" as="geometry" />
        </mxCell>
        <mxCell id="SudFrf4cLflyzT05pDyT-14" value="+billing_information : Billing Information" style="text;strokeColor=none;fillColor=none;align=left;verticalAlign=top;spacingLeft=4;spacingRight=4;overflow=hidden;rotatable=0;points=[[0,0.5],[1,0.5]];portConstraint=eastwest;whiteSpace=wrap;html=1;fontFamily=Helvetica;fontSize=15;fontColor=#000000;fontStyle=1;labelBorderColor=none;labelBackgroundColor=none;textShadow=0;" parent="SudFrf4cLflyzT05pDyT-9" vertex="1">
          <mxGeometry y="125" width="302" height="35" as="geometry" />
        </mxCell>
        <mxCell id="SudFrf4cLflyzT05pDyT-15" value="+library : Library" style="text;strokeColor=none;fillColor=none;align=left;verticalAlign=top;spacingLeft=4;spacingRight=4;overflow=hidden;rotatable=0;points=[[0,0.5],[1,0.5]];portConstraint=eastwest;whiteSpace=wrap;html=1;fontFamily=Helvetica;fontSize=15;fontColor=#000000;fontStyle=1;labelBorderColor=none;labelBackgroundColor=none;textShadow=0;" parent="SudFrf4cLflyzT05pDyT-9" vertex="1">
          <mxGeometry y="160" width="302" height="30" as="geometry" />
        </mxCell>
        <mxCell id="SudFrf4cLflyzT05pDyT-16" value="User" style="swimlane;fontStyle=1;childLayout=stackLayout;horizontal=1;startSize=26;fillColor=none;horizontalStack=0;resizeParent=1;resizeParentMax=0;resizeLast=0;collapsible=1;marginBottom=0;whiteSpace=wrap;html=1;rounded=1;shadow=0;dashed=0;strokeColor=#000000;strokeWidth=3;align=center;verticalAlign=middle;arcSize=4;fontFamily=Helvetica;fontSize=15;fontColor=#000000;labelBorderColor=none;labelBackgroundColor=none;textShadow=0;" parent="WIyWlLk6GJQsqaUBKTNV-1" vertex="1">
          <mxGeometry x="-597" y="49" width="140" height="52" as="geometry" />
        </mxCell>
        <mxCell id="SudFrf4cLflyzT05pDyT-20" value="" style="endArrow=block;endSize=10;endFill=0;shadow=0;strokeWidth=3;rounded=0;curved=0;edgeStyle=elbowEdgeStyle;elbow=vertical;textShadow=0;labelBorderColor=none;strokeColor=#000000;fontColor=#000000;labelBackgroundColor=none;fontSize=15;fontStyle=1;exitX=0.5;exitY=0;exitDx=0;exitDy=0;entryX=0.5;entryY=1;entryDx=0;entryDy=0;" parent="WIyWlLk6GJQsqaUBKTNV-1" source="SudFrf4cLflyzT05pDyT-9" target="SudFrf4cLflyzT05pDyT-16" edge="1">
          <mxGeometry width="160" relative="1" as="geometry">
            <mxPoint x="-559" y="157" as="sourcePoint" />
            <mxPoint x="-639" y="77" as="targetPoint" />
            <Array as="points">
              <mxPoint x="-603" y="153" />
            </Array>
          </mxGeometry>
        </mxCell>
        <mxCell id="SudFrf4cLflyzT05pDyT-21" value="Guest" style="swimlane;fontStyle=1;childLayout=stackLayout;horizontal=1;startSize=26;fillColor=none;horizontalStack=0;resizeParent=1;resizeParentMax=0;resizeLast=0;collapsible=1;marginBottom=0;whiteSpace=wrap;html=1;rounded=1;shadow=0;dashed=0;strokeColor=#000000;strokeWidth=3;align=center;verticalAlign=middle;arcSize=4;fontFamily=Helvetica;fontSize=15;fontColor=#000000;labelBorderColor=none;labelBackgroundColor=none;textShadow=0;" parent="WIyWlLk6GJQsqaUBKTNV-1" vertex="1">
          <mxGeometry x="-434" y="198" width="140" height="50" as="geometry" />
        </mxCell>
        <mxCell id="SudFrf4cLflyzT05pDyT-23" value="" style="endArrow=block;endSize=10;endFill=0;shadow=0;strokeWidth=3;rounded=0;curved=0;edgeStyle=elbowEdgeStyle;elbow=vertical;textShadow=0;labelBorderColor=none;strokeColor=#000000;fontColor=#000000;labelBackgroundColor=none;fontSize=15;fontStyle=1;exitX=0.5;exitY=0;exitDx=0;exitDy=0;entryX=0.5;entryY=1;entryDx=0;entryDy=0;" parent="WIyWlLk6GJQsqaUBKTNV-1" source="SudFrf4cLflyzT05pDyT-21" target="SudFrf4cLflyzT05pDyT-16" edge="1">
          <mxGeometry width="160" relative="1" as="geometry">
            <mxPoint x="-520" y="135" as="sourcePoint" />
            <mxPoint x="-706" y="24" as="targetPoint" />
            <Array as="points">
              <mxPoint x="-434" y="153" />
            </Array>
          </mxGeometry>
        </mxCell>
        <mxCell id="5QwQG5rDsZmuha2iQWHT-21" style="edgeStyle=orthogonalEdgeStyle;rounded=0;orthogonalLoop=1;jettySize=auto;html=1;strokeWidth=3;strokeColor=#000000;endArrow=none;endFill=0;endSize=6;textShadow=0;" parent="WIyWlLk6GJQsqaUBKTNV-1" source="SudFrf4cLflyzT05pDyT-24" target="SudFrf4cLflyzT05pDyT-97" edge="1">
          <mxGeometry relative="1" as="geometry" />
        </mxCell>
        <mxCell id="SudFrf4cLflyzT05pDyT-24" value="Billing&lt;div&gt;Information&lt;/div&gt;" style="swimlane;fontStyle=1;childLayout=stackLayout;horizontal=1;startSize=44;fillColor=none;horizontalStack=0;resizeParent=1;resizeParentMax=0;resizeLast=0;collapsible=1;marginBottom=0;whiteSpace=wrap;html=1;rounded=1;shadow=0;dashed=0;strokeColor=#000000;strokeWidth=3;align=center;verticalAlign=middle;arcSize=4;fontFamily=Helvetica;fontSize=15;fontColor=#000000;labelBorderColor=none;labelBackgroundColor=none;textShadow=0;" parent="WIyWlLk6GJQsqaUBKTNV-1" vertex="1">
          <mxGeometry x="-1545" y="220.5" width="229" height="265" as="geometry">
            <mxRectangle x="-536" y="518" width="73" height="30" as="alternateBounds" />
          </mxGeometry>
        </mxCell>
        <mxCell id="SudFrf4cLflyzT05pDyT-26" value="+name : String" style="text;strokeColor=none;fillColor=none;align=left;verticalAlign=top;spacingLeft=4;spacingRight=4;overflow=hidden;rotatable=0;points=[[0,0.5],[1,0.5]];portConstraint=eastwest;whiteSpace=wrap;html=1;fontFamily=Helvetica;fontSize=15;fontColor=#000000;fontStyle=1;labelBorderColor=none;labelBackgroundColor=none;textShadow=0;" parent="SudFrf4cLflyzT05pDyT-24" vertex="1">
          <mxGeometry y="44" width="229" height="26" as="geometry" />
        </mxCell>
        <mxCell id="SudFrf4cLflyzT05pDyT-27" value="+surname : String" style="text;strokeColor=none;fillColor=none;align=left;verticalAlign=top;spacingLeft=4;spacingRight=4;overflow=hidden;rotatable=0;points=[[0,0.5],[1,0.5]];portConstraint=eastwest;whiteSpace=wrap;html=1;fontFamily=Helvetica;fontSize=15;fontColor=#000000;fontStyle=1;labelBorderColor=none;labelBackgroundColor=none;textShadow=0;" parent="SudFrf4cLflyzT05pDyT-24" vertex="1">
          <mxGeometry y="70" width="229" height="35" as="geometry" />
        </mxCell>
        <mxCell id="SudFrf4cLflyzT05pDyT-28" value="+address : String" style="text;strokeColor=none;fillColor=none;align=left;verticalAlign=top;spacingLeft=4;spacingRight=4;overflow=hidden;rotatable=0;points=[[0,0.5],[1,0.5]];portConstraint=eastwest;whiteSpace=wrap;html=1;fontFamily=Helvetica;fontSize=15;fontColor=#000000;fontStyle=1;labelBorderColor=none;labelBackgroundColor=none;textShadow=0;" parent="SudFrf4cLflyzT05pDyT-24" vertex="1">
          <mxGeometry y="105" width="229" height="32" as="geometry" />
        </mxCell>
        <mxCell id="SudFrf4cLflyzT05pDyT-29" value="+postal_code : Integer" style="text;strokeColor=none;fillColor=none;align=left;verticalAlign=top;spacingLeft=4;spacingRight=4;overflow=hidden;rotatable=0;points=[[0,0.5],[1,0.5]];portConstraint=eastwest;whiteSpace=wrap;html=1;fontFamily=Helvetica;fontSize=15;fontColor=#000000;fontStyle=1;labelBorderColor=none;labelBackgroundColor=none;textShadow=0;" parent="SudFrf4cLflyzT05pDyT-24" vertex="1">
          <mxGeometry y="137" width="229" height="30" as="geometry" />
        </mxCell>
        <mxCell id="SudFrf4cLflyzT05pDyT-30" value="+city : String" style="text;strokeColor=none;fillColor=none;align=left;verticalAlign=top;spacingLeft=4;spacingRight=4;overflow=hidden;rotatable=0;points=[[0,0.5],[1,0.5]];portConstraint=eastwest;whiteSpace=wrap;html=1;fontFamily=Helvetica;fontSize=15;fontColor=#000000;fontStyle=1;labelBorderColor=none;labelBackgroundColor=none;textShadow=0;" parent="SudFrf4cLflyzT05pDyT-24" vertex="1">
          <mxGeometry y="167" width="229" height="30" as="geometry" />
        </mxCell>
        <mxCell id="Mn4rACtxwUHcPZqOqvtR-30" value="+country : String" style="text;strokeColor=none;fillColor=none;align=left;verticalAlign=top;spacingLeft=4;spacingRight=4;overflow=hidden;rotatable=0;points=[[0,0.5],[1,0.5]];portConstraint=eastwest;whiteSpace=wrap;html=1;fontFamily=Helvetica;fontSize=15;fontColor=#000000;fontStyle=1;labelBorderColor=none;labelBackgroundColor=none;textShadow=0;" parent="SudFrf4cLflyzT05pDyT-24" vertex="1">
          <mxGeometry y="197" width="229" height="30" as="geometry" />
        </mxCell>
        <mxCell id="Mn4rACtxwUHcPZqOqvtR-31" value="" style="line;strokeWidth=1;fillColor=none;align=left;verticalAlign=middle;spacingTop=-1;spacingLeft=3;spacingRight=3;rotatable=0;labelPosition=right;points=[];portConstraint=eastwest;strokeColor=inherit;" parent="SudFrf4cLflyzT05pDyT-24" vertex="1">
          <mxGeometry y="227" width="229" height="8" as="geometry" />
        </mxCell>
        <mxCell id="SudFrf4cLflyzT05pDyT-31" value="+isValid(): Boolean" style="text;strokeColor=none;fillColor=none;align=left;verticalAlign=top;spacingLeft=4;spacingRight=4;overflow=hidden;rotatable=0;points=[[0,0.5],[1,0.5]];portConstraint=eastwest;whiteSpace=wrap;html=1;fontFamily=Helvetica;fontSize=15;fontColor=#000000;fontStyle=1;labelBorderColor=none;labelBackgroundColor=none;textShadow=0;" parent="SudFrf4cLflyzT05pDyT-24" vertex="1">
          <mxGeometry y="235" width="229" height="30" as="geometry" />
        </mxCell>
        <mxCell id="SudFrf4cLflyzT05pDyT-32" value="&lt;i style=&quot;font-size: 15px;&quot;&gt;Building Mode&lt;/i&gt;" style="swimlane;fontStyle=1;childLayout=stackLayout;horizontal=1;startSize=30;horizontalStack=0;resizeParent=1;resizeParentMax=0;resizeLast=0;collapsible=1;marginBottom=0;whiteSpace=wrap;html=1;textShadow=0;labelBorderColor=none;strokeColor=#000000;fontColor=#000000;labelBackgroundColor=none;fillColor=none;fontSize=15;strokeWidth=3;rounded=1;shadow=0;dashed=0;align=center;verticalAlign=middle;arcSize=4;fontFamily=Helvetica;" parent="WIyWlLk6GJQsqaUBKTNV-1" vertex="1">
          <mxGeometry x="-1363" y="966" width="120" height="80" as="geometry" />
        </mxCell>
        <mxCell id="SudFrf4cLflyzT05pDyT-34" value="Beginner Mode" style="swimlane;fontStyle=1;childLayout=stackLayout;horizontal=1;startSize=30;horizontalStack=0;resizeParent=1;resizeParentMax=0;resizeLast=0;collapsible=1;marginBottom=0;whiteSpace=wrap;html=1;textShadow=0;labelBorderColor=none;strokeColor=#000000;fontColor=#000000;labelBackgroundColor=none;fillColor=none;fontSize=15;strokeWidth=3;rounded=1;shadow=0;dashed=0;align=center;verticalAlign=middle;arcSize=4;fontFamily=Helvetica;" parent="WIyWlLk6GJQsqaUBKTNV-1" vertex="1">
          <mxGeometry x="-1682" y="1126" width="291" height="90" as="geometry" />
        </mxCell>
        <mxCell id="Mn4rACtxwUHcPZqOqvtR-42" value="+questions : List&amp;lt;Question&amp;gt;" style="text;strokeColor=none;fillColor=none;align=left;verticalAlign=top;spacingLeft=4;spacingRight=4;overflow=hidden;rotatable=0;points=[[0,0.5],[1,0.5]];portConstraint=eastwest;whiteSpace=wrap;html=1;fontFamily=Helvetica;fontSize=15;fontColor=#000000;fontStyle=1;labelBorderColor=none;labelBackgroundColor=none;textShadow=0;" parent="SudFrf4cLflyzT05pDyT-34" vertex="1">
          <mxGeometry y="30" width="291" height="26" as="geometry" />
        </mxCell>
        <mxCell id="Led1aFKPRRhpDLwWSwgY-0" value="" style="line;strokeWidth=1;fillColor=none;align=left;verticalAlign=middle;spacingTop=-1;spacingLeft=3;spacingRight=3;rotatable=0;labelPosition=right;points=[];portConstraint=eastwest;strokeColor=inherit;" parent="SudFrf4cLflyzT05pDyT-34" vertex="1">
          <mxGeometry y="56" width="291" height="8" as="geometry" />
        </mxCell>
        <mxCell id="oO6vd9l6yAj-1YgE8Lrl-6" value="+showQuestions(): List&amp;lt;Question&amp;gt;" style="text;strokeColor=none;fillColor=none;align=left;verticalAlign=top;spacingLeft=4;spacingRight=4;overflow=hidden;rotatable=0;points=[[0,0.5],[1,0.5]];portConstraint=eastwest;whiteSpace=wrap;html=1;fontFamily=Helvetica;fontSize=15;fontColor=#000000;fontStyle=1;labelBorderColor=none;labelBackgroundColor=none;textShadow=0;" parent="SudFrf4cLflyzT05pDyT-34" vertex="1">
          <mxGeometry y="64" width="291" height="26" as="geometry" />
        </mxCell>
        <mxCell id="SudFrf4cLflyzT05pDyT-36" value="Normal Mode" style="swimlane;fontStyle=1;childLayout=stackLayout;horizontal=1;startSize=30;horizontalStack=0;resizeParent=1;resizeParentMax=0;resizeLast=0;collapsible=1;marginBottom=0;whiteSpace=wrap;html=1;textShadow=0;labelBorderColor=none;strokeColor=#000000;fontColor=#000000;labelBackgroundColor=none;fillColor=none;fontSize=15;strokeWidth=3;rounded=1;shadow=0;dashed=0;align=center;verticalAlign=middle;arcSize=4;fontFamily=Helvetica;" parent="WIyWlLk6GJQsqaUBKTNV-1" vertex="1">
          <mxGeometry x="-1363" y="1126" width="120" height="80" as="geometry" />
        </mxCell>
        <mxCell id="SudFrf4cLflyzT05pDyT-38" value="Expert Mode" style="swimlane;fontStyle=1;childLayout=stackLayout;horizontal=1;startSize=30;horizontalStack=0;resizeParent=1;resizeParentMax=0;resizeLast=0;collapsible=1;marginBottom=0;whiteSpace=wrap;html=1;textShadow=0;labelBorderColor=none;strokeColor=#000000;fontColor=#000000;labelBackgroundColor=none;fillColor=none;fontSize=15;strokeWidth=3;rounded=1;shadow=0;dashed=0;align=center;verticalAlign=middle;arcSize=4;fontFamily=Helvetica;" parent="WIyWlLk6GJQsqaUBKTNV-1" vertex="1">
          <mxGeometry x="-1203" y="1126" width="120" height="80" as="geometry" />
        </mxCell>
        <mxCell id="SudFrf4cLflyzT05pDyT-40" style="edgeStyle=orthogonalEdgeStyle;rounded=0;orthogonalLoop=1;jettySize=auto;html=1;entryX=0.5;entryY=1;entryDx=0;entryDy=0;dashed=1;endArrow=block;endFill=0;endSize=10;textShadow=0;labelBorderColor=none;strokeColor=#000000;fontColor=#000000;labelBackgroundColor=none;strokeWidth=3;fontSize=15;fontStyle=1;exitX=0.5;exitY=0;exitDx=0;exitDy=0;" parent="WIyWlLk6GJQsqaUBKTNV-1" source="SudFrf4cLflyzT05pDyT-38" edge="1">
          <mxGeometry relative="1" as="geometry">
            <Array as="points">
              <mxPoint x="-1143" y="1126" />
              <mxPoint x="-1143" y="1086" />
              <mxPoint x="-1303" y="1086" />
            </Array>
            <mxPoint x="-1143" y="1126" as="sourcePoint" />
            <mxPoint x="-1303" y="1046" as="targetPoint" />
          </mxGeometry>
        </mxCell>
        <mxCell id="SudFrf4cLflyzT05pDyT-42" style="edgeStyle=orthogonalEdgeStyle;rounded=0;orthogonalLoop=1;jettySize=auto;html=1;entryX=0.5;entryY=1;entryDx=0;entryDy=0;dashed=1;dashPattern=12 12;endArrow=block;endFill=0;endSize=10;textShadow=0;labelBorderColor=none;strokeColor=#000000;fontColor=#000000;labelBackgroundColor=none;strokeWidth=3;fontSize=15;fontStyle=1" parent="WIyWlLk6GJQsqaUBKTNV-1" edge="1">
          <mxGeometry relative="1" as="geometry">
            <mxPoint x="-1303" y="1126" as="sourcePoint" />
            <mxPoint x="-1303" y="1046" as="targetPoint" />
          </mxGeometry>
        </mxCell>
        <mxCell id="SudFrf4cLflyzT05pDyT-43" style="edgeStyle=orthogonalEdgeStyle;rounded=0;orthogonalLoop=1;jettySize=auto;html=1;entryX=0.5;entryY=1;entryDx=0;entryDy=0;dashed=1;endArrow=block;endFill=0;endSize=10;textShadow=0;labelBorderColor=none;strokeColor=#000000;fontColor=#000000;labelBackgroundColor=none;strokeWidth=3;fontSize=15;fontStyle=1;exitX=0.5;exitY=0;exitDx=0;exitDy=0;" parent="WIyWlLk6GJQsqaUBKTNV-1" source="SudFrf4cLflyzT05pDyT-34" edge="1">
          <mxGeometry relative="1" as="geometry">
            <Array as="points">
              <mxPoint x="-1536" y="1086" />
              <mxPoint x="-1303" y="1086" />
            </Array>
            <mxPoint x="-1463" y="1126" as="sourcePoint" />
            <mxPoint x="-1303" y="1046" as="targetPoint" />
          </mxGeometry>
        </mxCell>
        <mxCell id="SudFrf4cLflyzT05pDyT-51" value="Build" style="swimlane;fontStyle=1;childLayout=stackLayout;horizontal=1;startSize=26;fillColor=none;horizontalStack=0;resizeParent=1;resizeParentMax=0;resizeLast=0;collapsible=1;marginBottom=0;whiteSpace=wrap;html=1;rounded=1;shadow=0;dashed=0;strokeColor=#000000;strokeWidth=3;align=center;verticalAlign=middle;arcSize=4;fontFamily=Helvetica;fontSize=15;fontColor=#000000;labelBorderColor=none;labelBackgroundColor=none;textShadow=0;" parent="WIyWlLk6GJQsqaUBKTNV-1" vertex="1">
          <mxGeometry x="-907" y="661" width="570.38" height="424" as="geometry">
            <mxRectangle x="-536" y="518" width="73" height="30" as="alternateBounds" />
          </mxGeometry>
        </mxCell>
        <mxCell id="KfmZiENBN5u5x_a287lG-17" value="+cpu : CPU" style="text;strokeColor=none;fillColor=none;align=left;verticalAlign=top;spacingLeft=4;spacingRight=4;overflow=hidden;rotatable=0;points=[[0,0.5],[1,0.5]];portConstraint=eastwest;whiteSpace=wrap;html=1;fontFamily=Helvetica;fontSize=15;fontColor=#000000;fontStyle=1;labelBorderColor=none;labelBackgroundColor=none;textShadow=0;" parent="SudFrf4cLflyzT05pDyT-51" vertex="1">
          <mxGeometry y="26" width="570.38" height="26" as="geometry" />
        </mxCell>
        <mxCell id="KfmZiENBN5u5x_a287lG-18" value="+gpu : GPU" style="text;strokeColor=none;fillColor=none;align=left;verticalAlign=top;spacingLeft=4;spacingRight=4;overflow=hidden;rotatable=0;points=[[0,0.5],[1,0.5]];portConstraint=eastwest;whiteSpace=wrap;html=1;fontFamily=Helvetica;fontSize=15;fontColor=#000000;fontStyle=1;labelBorderColor=none;labelBackgroundColor=none;textShadow=0;" parent="SudFrf4cLflyzT05pDyT-51" vertex="1">
          <mxGeometry y="52" width="570.38" height="26" as="geometry" />
        </mxCell>
        <mxCell id="KfmZiENBN5u5x_a287lG-19" value="+ram : RAM" style="text;strokeColor=none;fillColor=none;align=left;verticalAlign=top;spacingLeft=4;spacingRight=4;overflow=hidden;rotatable=0;points=[[0,0.5],[1,0.5]];portConstraint=eastwest;whiteSpace=wrap;html=1;fontFamily=Helvetica;fontSize=15;fontColor=#000000;fontStyle=1;labelBorderColor=none;labelBackgroundColor=none;textShadow=0;" parent="SudFrf4cLflyzT05pDyT-51" vertex="1">
          <mxGeometry y="78" width="570.38" height="26" as="geometry" />
        </mxCell>
        <mxCell id="KfmZiENBN5u5x_a287lG-20" value="+cooling_system : Cooling System" style="text;strokeColor=none;fillColor=none;align=left;verticalAlign=top;spacingLeft=4;spacingRight=4;overflow=hidden;rotatable=0;points=[[0,0.5],[1,0.5]];portConstraint=eastwest;whiteSpace=wrap;html=1;fontFamily=Helvetica;fontSize=15;fontColor=#000000;fontStyle=1;labelBorderColor=none;labelBackgroundColor=none;textShadow=0;" parent="SudFrf4cLflyzT05pDyT-51" vertex="1">
          <mxGeometry y="104" width="570.38" height="26" as="geometry" />
        </mxCell>
        <mxCell id="KfmZiENBN5u5x_a287lG-21" value="+decoration : Decoration" style="text;strokeColor=none;fillColor=none;align=left;verticalAlign=top;spacingLeft=4;spacingRight=4;overflow=hidden;rotatable=0;points=[[0,0.5],[1,0.5]];portConstraint=eastwest;whiteSpace=wrap;html=1;fontFamily=Helvetica;fontSize=15;fontColor=#000000;fontStyle=1;labelBorderColor=none;labelBackgroundColor=none;textShadow=0;" parent="SudFrf4cLflyzT05pDyT-51" vertex="1">
          <mxGeometry y="130" width="570.38" height="26" as="geometry" />
        </mxCell>
        <mxCell id="KfmZiENBN5u5x_a287lG-22" value="+motherboard : Motherboard" style="text;strokeColor=none;fillColor=none;align=left;verticalAlign=top;spacingLeft=4;spacingRight=4;overflow=hidden;rotatable=0;points=[[0,0.5],[1,0.5]];portConstraint=eastwest;whiteSpace=wrap;html=1;fontFamily=Helvetica;fontSize=15;fontColor=#000000;fontStyle=1;labelBorderColor=none;labelBackgroundColor=none;textShadow=0;" parent="SudFrf4cLflyzT05pDyT-51" vertex="1">
          <mxGeometry y="156" width="570.38" height="26" as="geometry" />
        </mxCell>
        <mxCell id="KfmZiENBN5u5x_a287lG-23" value="+psu : PSU" style="text;strokeColor=none;fillColor=none;align=left;verticalAlign=top;spacingLeft=4;spacingRight=4;overflow=hidden;rotatable=0;points=[[0,0.5],[1,0.5]];portConstraint=eastwest;whiteSpace=wrap;html=1;fontFamily=Helvetica;fontSize=15;fontColor=#000000;fontStyle=1;labelBorderColor=none;labelBackgroundColor=none;textShadow=0;" parent="SudFrf4cLflyzT05pDyT-51" vertex="1">
          <mxGeometry y="182" width="570.38" height="26" as="geometry" />
        </mxCell>
        <mxCell id="KfmZiENBN5u5x_a287lG-24" value="+pc_case : Case" style="text;strokeColor=none;fillColor=none;align=left;verticalAlign=top;spacingLeft=4;spacingRight=4;overflow=hidden;rotatable=0;points=[[0,0.5],[1,0.5]];portConstraint=eastwest;whiteSpace=wrap;html=1;fontFamily=Helvetica;fontSize=15;fontColor=#000000;fontStyle=1;labelBorderColor=none;labelBackgroundColor=none;textShadow=0;" parent="SudFrf4cLflyzT05pDyT-51" vertex="1">
          <mxGeometry y="208" width="570.38" height="26" as="geometry" />
        </mxCell>
        <mxCell id="Mn4rACtxwUHcPZqOqvtR-13" value="+drive : Drive" style="text;strokeColor=none;fillColor=none;align=left;verticalAlign=top;spacingLeft=4;spacingRight=4;overflow=hidden;rotatable=0;points=[[0,0.5],[1,0.5]];portConstraint=eastwest;whiteSpace=wrap;html=1;fontFamily=Helvetica;fontSize=15;fontColor=#000000;fontStyle=1;labelBorderColor=none;labelBackgroundColor=none;textShadow=0;" parent="SudFrf4cLflyzT05pDyT-51" vertex="1">
          <mxGeometry y="234" width="570.38" height="26" as="geometry" />
        </mxCell>
        <mxCell id="Mn4rACtxwUHcPZqOqvtR-14" value="" style="line;strokeWidth=1;fillColor=none;align=left;verticalAlign=middle;spacingTop=-1;spacingLeft=3;spacingRight=3;rotatable=0;labelPosition=right;points=[];portConstraint=eastwest;strokeColor=inherit;" parent="SudFrf4cLflyzT05pDyT-51" vertex="1">
          <mxGeometry y="260" width="570.38" height="8" as="geometry" />
        </mxCell>
        <mxCell id="Mn4rACtxwUHcPZqOqvtR-15" value="+static generateCandidateBuilds(List&amp;lt;AnsweredQuestion&amp;gt;): List&amp;lt;Build&amp;gt;" style="text;strokeColor=none;fillColor=none;align=left;verticalAlign=top;spacingLeft=4;spacingRight=4;overflow=hidden;rotatable=0;points=[[0,0.5],[1,0.5]];portConstraint=eastwest;whiteSpace=wrap;html=1;fontFamily=Helvetica;fontSize=15;fontColor=#000000;fontStyle=1;labelBorderColor=none;labelBackgroundColor=none;textShadow=0;" parent="SudFrf4cLflyzT05pDyT-51" vertex="1">
          <mxGeometry y="268" width="570.38" height="26" as="geometry" />
        </mxCell>
        <mxCell id="Mn4rACtxwUHcPZqOqvtR-16" value="+constraintsMet(): Boolean" style="text;strokeColor=none;fillColor=none;align=left;verticalAlign=top;spacingLeft=4;spacingRight=4;overflow=hidden;rotatable=0;points=[[0,0.5],[1,0.5]];portConstraint=eastwest;whiteSpace=wrap;html=1;fontFamily=Helvetica;fontSize=15;fontColor=#000000;fontStyle=1;labelBorderColor=none;labelBackgroundColor=none;textShadow=0;" parent="SudFrf4cLflyzT05pDyT-51" vertex="1">
          <mxGeometry y="294" width="570.38" height="26" as="geometry" />
        </mxCell>
        <mxCell id="Mn4rACtxwUHcPZqOqvtR-17" value="+uploadComment(String): void" style="text;strokeColor=none;fillColor=none;align=left;verticalAlign=top;spacingLeft=4;spacingRight=4;overflow=hidden;rotatable=0;points=[[0,0.5],[1,0.5]];portConstraint=eastwest;whiteSpace=wrap;html=1;fontFamily=Helvetica;fontSize=15;fontColor=#000000;fontStyle=1;labelBorderColor=none;labelBackgroundColor=none;textShadow=0;" parent="SudFrf4cLflyzT05pDyT-51" vertex="1">
          <mxGeometry y="320" width="570.38" height="26" as="geometry" />
        </mxCell>
        <mxCell id="Mn4rACtxwUHcPZqOqvtR-18" value="+increaseLikes(): void" style="text;strokeColor=none;fillColor=none;align=left;verticalAlign=top;spacingLeft=4;spacingRight=4;overflow=hidden;rotatable=0;points=[[0,0.5],[1,0.5]];portConstraint=eastwest;whiteSpace=wrap;html=1;fontFamily=Helvetica;fontSize=15;fontColor=#000000;fontStyle=1;labelBorderColor=none;labelBackgroundColor=none;textShadow=0;" parent="SudFrf4cLflyzT05pDyT-51" vertex="1">
          <mxGeometry y="346" width="570.38" height="26" as="geometry" />
        </mxCell>
        <mxCell id="Mn4rACtxwUHcPZqOqvtR-19" value="+increaseDislikes(): void" style="text;strokeColor=none;fillColor=none;align=left;verticalAlign=top;spacingLeft=4;spacingRight=4;overflow=hidden;rotatable=0;points=[[0,0.5],[1,0.5]];portConstraint=eastwest;whiteSpace=wrap;html=1;fontFamily=Helvetica;fontSize=15;fontColor=#000000;fontStyle=1;labelBorderColor=none;labelBackgroundColor=none;textShadow=0;" parent="SudFrf4cLflyzT05pDyT-51" vertex="1">
          <mxGeometry y="372" width="570.38" height="26" as="geometry" />
        </mxCell>
        <mxCell id="SudFrf4cLflyzT05pDyT-52" value="+saveBuild(): void" style="text;strokeColor=none;fillColor=none;align=left;verticalAlign=top;spacingLeft=4;spacingRight=4;overflow=hidden;rotatable=0;points=[[0,0.5],[1,0.5]];portConstraint=eastwest;whiteSpace=wrap;html=1;fontFamily=Helvetica;fontSize=15;fontColor=#000000;fontStyle=1;labelBorderColor=none;labelBackgroundColor=none;textShadow=0;" parent="SudFrf4cLflyzT05pDyT-51" vertex="1">
          <mxGeometry y="398" width="570.38" height="26" as="geometry" />
        </mxCell>
        <mxCell id="5QwQG5rDsZmuha2iQWHT-34" style="edgeStyle=orthogonalEdgeStyle;rounded=0;orthogonalLoop=1;jettySize=auto;html=1;strokeWidth=3;strokeColor=#000000;endArrow=diamond;endFill=0;endSize=10;textShadow=0;exitX=0.5;exitY=1;exitDx=0;exitDy=0;" parent="WIyWlLk6GJQsqaUBKTNV-1" source="SudFrf4cLflyzT05pDyT-51" target="SudFrf4cLflyzT05pDyT-67" edge="1">
          <mxGeometry relative="1" as="geometry">
            <mxPoint x="-688.5000000000009" y="1013.5" as="targetPoint" />
            <Array as="points" />
            <mxPoint x="-570.2500000000009" y="1125" as="sourcePoint" />
          </mxGeometry>
        </mxCell>
        <mxCell id="SudFrf4cLflyzT05pDyT-67" value="Component" style="swimlane;fontStyle=1;childLayout=stackLayout;horizontal=1;startSize=26;fillColor=none;horizontalStack=0;resizeParent=1;resizeParentMax=0;resizeLast=0;collapsible=1;marginBottom=0;whiteSpace=wrap;html=1;rounded=1;shadow=0;dashed=0;strokeColor=#000000;strokeWidth=3;align=center;verticalAlign=middle;arcSize=4;fontFamily=Helvetica;fontSize=15;fontColor=#000000;labelBorderColor=none;labelBackgroundColor=none;textShadow=0;" parent="WIyWlLk6GJQsqaUBKTNV-1" vertex="1">
          <mxGeometry x="-1053" y="1200.5" width="507.5" height="257" as="geometry">
            <mxRectangle x="-536" y="518" width="73" height="30" as="alternateBounds" />
          </mxGeometry>
        </mxCell>
        <mxCell id="93_m1jLfWyNL42i5EXpA-67" value="+name : String" style="text;strokeColor=none;fillColor=none;align=left;verticalAlign=top;spacingLeft=4;spacingRight=4;overflow=hidden;rotatable=0;points=[[0,0.5],[1,0.5]];portConstraint=eastwest;whiteSpace=wrap;html=1;fontFamily=Helvetica;fontSize=15;fontColor=#000000;fontStyle=1;labelBorderColor=none;labelBackgroundColor=none;textShadow=0;" parent="SudFrf4cLflyzT05pDyT-67" vertex="1">
          <mxGeometry y="26" width="507.5" height="26" as="geometry" />
        </mxCell>
        <mxCell id="93_m1jLfWyNL42i5EXpA-71" value="+price : Float" style="text;strokeColor=none;fillColor=none;align=left;verticalAlign=top;spacingLeft=4;spacingRight=4;overflow=hidden;rotatable=0;points=[[0,0.5],[1,0.5]];portConstraint=eastwest;whiteSpace=wrap;html=1;fontFamily=Helvetica;fontSize=15;fontColor=#000000;fontStyle=1;labelBorderColor=none;labelBackgroundColor=none;textShadow=0;" parent="SudFrf4cLflyzT05pDyT-67" vertex="1">
          <mxGeometry y="52" width="507.5" height="32" as="geometry" />
        </mxCell>
        <mxCell id="SudFrf4cLflyzT05pDyT-69" value="+image : String" style="text;strokeColor=none;fillColor=none;align=left;verticalAlign=top;spacingLeft=4;spacingRight=4;overflow=hidden;rotatable=0;points=[[0,0.5],[1,0.5]];portConstraint=eastwest;whiteSpace=wrap;html=1;fontFamily=Helvetica;fontSize=15;fontColor=#000000;fontStyle=1;labelBorderColor=none;labelBackgroundColor=none;textShadow=0;" parent="SudFrf4cLflyzT05pDyT-67" vertex="1">
          <mxGeometry y="84" width="507.5" height="26" as="geometry" />
        </mxCell>
        <mxCell id="93_m1jLfWyNL42i5EXpA-66" value="+description : String" style="text;strokeColor=none;fillColor=none;align=left;verticalAlign=top;spacingLeft=4;spacingRight=4;overflow=hidden;rotatable=0;points=[[0,0.5],[1,0.5]];portConstraint=eastwest;whiteSpace=wrap;html=1;fontFamily=Helvetica;fontSize=15;fontColor=#000000;fontStyle=1;labelBorderColor=none;labelBackgroundColor=none;textShadow=0;" parent="SudFrf4cLflyzT05pDyT-67" vertex="1">
          <mxGeometry y="110" width="507.5" height="32" as="geometry" />
        </mxCell>
        <mxCell id="Mn4rACtxwUHcPZqOqvtR-3" value="+manufacturer : String" style="text;strokeColor=none;fillColor=none;align=left;verticalAlign=top;spacingLeft=4;spacingRight=4;overflow=hidden;rotatable=0;points=[[0,0.5],[1,0.5]];portConstraint=eastwest;whiteSpace=wrap;html=1;fontFamily=Helvetica;fontSize=15;fontColor=#000000;fontStyle=1;labelBorderColor=none;labelBackgroundColor=none;textShadow=0;" parent="SudFrf4cLflyzT05pDyT-67" vertex="1">
          <mxGeometry y="142" width="507.5" height="32" as="geometry" />
        </mxCell>
        <mxCell id="Mn4rACtxwUHcPZqOqvtR-4" value="" style="line;strokeWidth=1;fillColor=none;align=left;verticalAlign=middle;spacingTop=-1;spacingLeft=3;spacingRight=3;rotatable=0;labelPosition=right;points=[];portConstraint=eastwest;strokeColor=inherit;" parent="SudFrf4cLflyzT05pDyT-67" vertex="1">
          <mxGeometry y="174" width="507.5" height="8" as="geometry" />
        </mxCell>
        <mxCell id="Mn4rACtxwUHcPZqOqvtR-5" value="+static queryComponents(componentType: String, attributes: Map&amp;lt;String, any&amp;gt;): List&amp;lt;Component&amp;gt;" style="text;strokeColor=none;fillColor=none;align=left;verticalAlign=top;spacingLeft=4;spacingRight=4;overflow=hidden;rotatable=0;points=[[0,0.5],[1,0.5]];portConstraint=eastwest;whiteSpace=wrap;html=1;fontFamily=Helvetica;fontSize=15;fontColor=#000000;fontStyle=1;labelBorderColor=none;labelBackgroundColor=none;textShadow=0;" parent="SudFrf4cLflyzT05pDyT-67" vertex="1">
          <mxGeometry y="182" width="507.5" height="43" as="geometry" />
        </mxCell>
        <mxCell id="SudFrf4cLflyzT05pDyT-71" value="+static getComponents(componentType: String): List&amp;lt;Component&amp;gt;" style="text;strokeColor=none;fillColor=none;align=left;verticalAlign=top;spacingLeft=4;spacingRight=4;overflow=hidden;rotatable=0;points=[[0,0.5],[1,0.5]];portConstraint=eastwest;whiteSpace=wrap;html=1;fontFamily=Helvetica;fontSize=15;fontColor=#000000;fontStyle=1;labelBorderColor=none;labelBackgroundColor=none;textShadow=0;" parent="SudFrf4cLflyzT05pDyT-67" vertex="1">
          <mxGeometry y="225" width="507.5" height="32" as="geometry" />
        </mxCell>
        <mxCell id="5QwQG5rDsZmuha2iQWHT-32" style="edgeStyle=orthogonalEdgeStyle;rounded=0;orthogonalLoop=1;jettySize=auto;html=1;endArrow=block;endFill=0;endSize=10;strokeColor=#000000;strokeWidth=3;textShadow=0;" parent="WIyWlLk6GJQsqaUBKTNV-1" source="SudFrf4cLflyzT05pDyT-87" target="5QwQG5rDsZmuha2iQWHT-29" edge="1">
          <mxGeometry relative="1" as="geometry">
            <Array as="points">
              <mxPoint x="-1128" y="1653" />
              <mxPoint x="-1297" y="1653" />
            </Array>
          </mxGeometry>
        </mxCell>
        <mxCell id="SudFrf4cLflyzT05pDyT-87" value="GPU" style="swimlane;fontStyle=1;childLayout=stackLayout;horizontal=1;startSize=30;horizontalStack=0;resizeParent=1;resizeParentMax=0;resizeLast=0;collapsible=1;marginBottom=0;whiteSpace=wrap;html=1;textShadow=0;labelBorderColor=none;strokeColor=#000000;fontColor=#000000;labelBackgroundColor=none;fillColor=none;fontSize=15;strokeWidth=3;rounded=1;shadow=0;dashed=0;align=center;verticalAlign=middle;arcSize=4;fontFamily=Helvetica;" parent="WIyWlLk6GJQsqaUBKTNV-1" vertex="1">
          <mxGeometry x="-1235" y="1695" width="217" height="212" as="geometry" />
        </mxCell>
        <mxCell id="93_m1jLfWyNL42i5EXpA-47" value="+architecture : String" style="text;strokeColor=none;fillColor=none;align=left;verticalAlign=top;spacingLeft=4;spacingRight=4;overflow=hidden;rotatable=0;points=[[0,0.5],[1,0.5]];portConstraint=eastwest;whiteSpace=wrap;html=1;fontFamily=Helvetica;fontSize=15;fontColor=#000000;fontStyle=1;labelBorderColor=none;labelBackgroundColor=none;textShadow=0;" parent="SudFrf4cLflyzT05pDyT-87" vertex="1">
          <mxGeometry y="30" width="217" height="26" as="geometry" />
        </mxCell>
        <mxCell id="93_m1jLfWyNL42i5EXpA-48" value="+base_clock : Integer" style="text;strokeColor=none;fillColor=none;align=left;verticalAlign=top;spacingLeft=4;spacingRight=4;overflow=hidden;rotatable=0;points=[[0,0.5],[1,0.5]];portConstraint=eastwest;whiteSpace=wrap;html=1;fontFamily=Helvetica;fontSize=15;fontColor=#000000;fontStyle=1;labelBorderColor=none;labelBackgroundColor=none;textShadow=0;" parent="SudFrf4cLflyzT05pDyT-87" vertex="1">
          <mxGeometry y="56" width="217" height="26" as="geometry" />
        </mxCell>
        <mxCell id="93_m1jLfWyNL42i5EXpA-49" value="+oc_clock : Integer" style="text;strokeColor=none;fillColor=none;align=left;verticalAlign=top;spacingLeft=4;spacingRight=4;overflow=hidden;rotatable=0;points=[[0,0.5],[1,0.5]];portConstraint=eastwest;whiteSpace=wrap;html=1;fontFamily=Helvetica;fontSize=15;fontColor=#000000;fontStyle=1;labelBorderColor=none;labelBackgroundColor=none;textShadow=0;" parent="SudFrf4cLflyzT05pDyT-87" vertex="1">
          <mxGeometry y="82" width="217" height="26" as="geometry" />
        </mxCell>
        <mxCell id="93_m1jLfWyNL42i5EXpA-39" value="+vram_type : String" style="text;strokeColor=none;fillColor=none;align=left;verticalAlign=top;spacingLeft=4;spacingRight=4;overflow=hidden;rotatable=0;points=[[0,0.5],[1,0.5]];portConstraint=eastwest;whiteSpace=wrap;html=1;fontFamily=Helvetica;fontSize=15;fontColor=#000000;fontStyle=1;labelBorderColor=none;labelBackgroundColor=none;textShadow=0;" parent="SudFrf4cLflyzT05pDyT-87" vertex="1">
          <mxGeometry y="108" width="217" height="26" as="geometry" />
        </mxCell>
        <mxCell id="93_m1jLfWyNL42i5EXpA-51" value="+vram_size : Integer" style="text;strokeColor=none;fillColor=none;align=left;verticalAlign=top;spacingLeft=4;spacingRight=4;overflow=hidden;rotatable=0;points=[[0,0.5],[1,0.5]];portConstraint=eastwest;whiteSpace=wrap;html=1;fontFamily=Helvetica;fontSize=15;fontColor=#000000;fontStyle=1;labelBorderColor=none;labelBackgroundColor=none;textShadow=0;" parent="SudFrf4cLflyzT05pDyT-87" vertex="1">
          <mxGeometry y="134" width="217" height="26" as="geometry" />
        </mxCell>
        <mxCell id="KfmZiENBN5u5x_a287lG-7" value="+pcie_type : String" style="text;strokeColor=none;fillColor=none;align=left;verticalAlign=top;spacingLeft=4;spacingRight=4;overflow=hidden;rotatable=0;points=[[0,0.5],[1,0.5]];portConstraint=eastwest;whiteSpace=wrap;html=1;fontFamily=Helvetica;fontSize=15;fontColor=#000000;fontStyle=1;labelBorderColor=none;labelBackgroundColor=none;textShadow=0;" parent="SudFrf4cLflyzT05pDyT-87" vertex="1">
          <mxGeometry y="160" width="217" height="26" as="geometry" />
        </mxCell>
        <mxCell id="93_m1jLfWyNL42i5EXpA-52" value="+watt_consumption : Integer" style="text;strokeColor=none;fillColor=none;align=left;verticalAlign=top;spacingLeft=4;spacingRight=4;overflow=hidden;rotatable=0;points=[[0,0.5],[1,0.5]];portConstraint=eastwest;whiteSpace=wrap;html=1;fontFamily=Helvetica;fontSize=15;fontColor=#000000;fontStyle=1;labelBorderColor=none;labelBackgroundColor=none;textShadow=0;" parent="SudFrf4cLflyzT05pDyT-87" vertex="1">
          <mxGeometry y="186" width="217" height="26" as="geometry" />
        </mxCell>
        <mxCell id="KfmZiENBN5u5x_a287lG-0" style="edgeStyle=orthogonalEdgeStyle;rounded=0;orthogonalLoop=1;jettySize=auto;html=1;strokeWidth=3;endArrow=block;endFill=0;strokeColor=#000000;endSize=10;" parent="WIyWlLk6GJQsqaUBKTNV-1" source="SudFrf4cLflyzT05pDyT-88" target="5QwQG5rDsZmuha2iQWHT-29" edge="1">
          <mxGeometry relative="1" as="geometry">
            <Array as="points">
              <mxPoint x="-1462" y="1959" />
              <mxPoint x="-1297" y="1959" />
            </Array>
          </mxGeometry>
        </mxCell>
        <mxCell id="SudFrf4cLflyzT05pDyT-88" value="RAM" style="swimlane;fontStyle=1;childLayout=stackLayout;horizontal=1;startSize=30;horizontalStack=0;resizeParent=1;resizeParentMax=0;resizeLast=0;collapsible=1;marginBottom=0;whiteSpace=wrap;html=1;textShadow=0;labelBorderColor=none;strokeColor=#000000;fontColor=#000000;labelBackgroundColor=none;fillColor=none;fontSize=15;strokeWidth=3;rounded=1;shadow=0;dashed=0;align=center;verticalAlign=middle;arcSize=4;fontFamily=Helvetica;" parent="WIyWlLk6GJQsqaUBKTNV-1" vertex="1">
          <mxGeometry x="-1575" y="1983" width="228" height="211" as="geometry" />
        </mxCell>
        <mxCell id="93_m1jLfWyNL42i5EXpA-60" value="+type : String" style="text;strokeColor=none;fillColor=none;align=left;verticalAlign=top;spacingLeft=4;spacingRight=4;overflow=hidden;rotatable=0;points=[[0,0.5],[1,0.5]];portConstraint=eastwest;whiteSpace=wrap;html=1;fontFamily=Helvetica;fontSize=15;fontColor=#000000;fontStyle=1;labelBorderColor=none;labelBackgroundColor=none;textShadow=0;" parent="SudFrf4cLflyzT05pDyT-88" vertex="1">
          <mxGeometry y="30" width="228" height="26" as="geometry" />
        </mxCell>
        <mxCell id="93_m1jLfWyNL42i5EXpA-50" value="+modules : Integer" style="text;strokeColor=none;fillColor=none;align=left;verticalAlign=top;spacingLeft=4;spacingRight=4;overflow=hidden;rotatable=0;points=[[0,0.5],[1,0.5]];portConstraint=eastwest;whiteSpace=wrap;html=1;fontFamily=Helvetica;fontSize=15;fontColor=#000000;fontStyle=1;labelBorderColor=none;labelBackgroundColor=none;textShadow=0;" parent="SudFrf4cLflyzT05pDyT-88" vertex="1">
          <mxGeometry y="56" width="228" height="26" as="geometry" />
        </mxCell>
        <mxCell id="93_m1jLfWyNL42i5EXpA-61" value="+size : Integer" style="text;strokeColor=none;fillColor=none;align=left;verticalAlign=top;spacingLeft=4;spacingRight=4;overflow=hidden;rotatable=0;points=[[0,0.5],[1,0.5]];portConstraint=eastwest;whiteSpace=wrap;html=1;fontFamily=Helvetica;fontSize=15;fontColor=#000000;fontStyle=1;labelBorderColor=none;labelBackgroundColor=none;textShadow=0;" parent="SudFrf4cLflyzT05pDyT-88" vertex="1">
          <mxGeometry y="82" width="228" height="26" as="geometry" />
        </mxCell>
        <mxCell id="93_m1jLfWyNL42i5EXpA-63" value="+clock_speed : Integer" style="text;strokeColor=none;fillColor=none;align=left;verticalAlign=top;spacingLeft=4;spacingRight=4;overflow=hidden;rotatable=0;points=[[0,0.5],[1,0.5]];portConstraint=eastwest;whiteSpace=wrap;html=1;fontFamily=Helvetica;fontSize=15;fontColor=#000000;fontStyle=1;labelBorderColor=none;labelBackgroundColor=none;textShadow=0;" parent="SudFrf4cLflyzT05pDyT-88" vertex="1">
          <mxGeometry y="108" width="228" height="25" as="geometry" />
        </mxCell>
        <mxCell id="93_m1jLfWyNL42i5EXpA-65" value="+cas_latency : Integer" style="text;strokeColor=none;fillColor=none;align=left;verticalAlign=top;spacingLeft=4;spacingRight=4;overflow=hidden;rotatable=0;points=[[0,0.5],[1,0.5]];portConstraint=eastwest;whiteSpace=wrap;html=1;fontFamily=Helvetica;fontSize=15;fontColor=#000000;fontStyle=1;labelBorderColor=none;labelBackgroundColor=none;textShadow=0;" parent="SudFrf4cLflyzT05pDyT-88" vertex="1">
          <mxGeometry y="133" width="228" height="26" as="geometry" />
        </mxCell>
        <mxCell id="93_m1jLfWyNL42i5EXpA-64" value="+rgb_lighting : Boolean" style="text;strokeColor=none;fillColor=none;align=left;verticalAlign=top;spacingLeft=4;spacingRight=4;overflow=hidden;rotatable=0;points=[[0,0.5],[1,0.5]];portConstraint=eastwest;whiteSpace=wrap;html=1;fontFamily=Helvetica;fontSize=15;fontColor=#000000;fontStyle=1;labelBorderColor=none;labelBackgroundColor=none;textShadow=0;" parent="SudFrf4cLflyzT05pDyT-88" vertex="1">
          <mxGeometry y="159" width="228" height="26" as="geometry" />
        </mxCell>
        <mxCell id="KfmZiENBN5u5x_a287lG-2" value="+watt_consumption : Integer" style="text;strokeColor=none;fillColor=none;align=left;verticalAlign=top;spacingLeft=4;spacingRight=4;overflow=hidden;rotatable=0;points=[[0,0.5],[1,0.5]];portConstraint=eastwest;whiteSpace=wrap;html=1;fontFamily=Helvetica;fontSize=15;fontColor=#000000;fontStyle=1;labelBorderColor=none;labelBackgroundColor=none;textShadow=0;" parent="SudFrf4cLflyzT05pDyT-88" vertex="1">
          <mxGeometry y="185" width="228" height="26" as="geometry" />
        </mxCell>
        <mxCell id="5QwQG5rDsZmuha2iQWHT-44" style="edgeStyle=orthogonalEdgeStyle;rounded=0;orthogonalLoop=1;jettySize=auto;html=1;endSize=10;strokeColor=#000000;endArrow=block;endFill=0;strokeWidth=3;textShadow=0;" parent="WIyWlLk6GJQsqaUBKTNV-1" source="SudFrf4cLflyzT05pDyT-89" target="5QwQG5rDsZmuha2iQWHT-35" edge="1">
          <mxGeometry relative="1" as="geometry">
            <Array as="points">
              <mxPoint x="-671" y="1653" />
              <mxPoint x="-512" y="1653" />
            </Array>
          </mxGeometry>
        </mxCell>
        <mxCell id="SudFrf4cLflyzT05pDyT-89" value="Case" style="swimlane;fontStyle=1;childLayout=stackLayout;horizontal=1;startSize=30;horizontalStack=0;resizeParent=1;resizeParentMax=0;resizeLast=0;collapsible=1;marginBottom=0;whiteSpace=wrap;html=1;textShadow=0;labelBorderColor=none;strokeColor=#000000;fontColor=#000000;labelBackgroundColor=none;fillColor=none;fontSize=15;strokeWidth=3;rounded=1;shadow=0;dashed=0;align=center;verticalAlign=middle;arcSize=4;fontFamily=Helvetica;" parent="WIyWlLk6GJQsqaUBKTNV-1" vertex="1">
          <mxGeometry x="-844" y="2008.5" width="342" height="160" as="geometry" />
        </mxCell>
        <mxCell id="93_m1jLfWyNL42i5EXpA-73" value="+type : String" style="text;strokeColor=none;fillColor=none;align=left;verticalAlign=top;spacingLeft=4;spacingRight=4;overflow=hidden;rotatable=0;points=[[0,0.5],[1,0.5]];portConstraint=eastwest;whiteSpace=wrap;html=1;fontFamily=Helvetica;fontSize=15;fontColor=#000000;fontStyle=1;labelBorderColor=none;labelBackgroundColor=none;textShadow=0;" parent="SudFrf4cLflyzT05pDyT-89" vertex="1">
          <mxGeometry y="30" width="342" height="26" as="geometry" />
        </mxCell>
        <mxCell id="93_m1jLfWyNL42i5EXpA-72" value="+motherboard_types_supported : List&amp;lt;String&amp;gt;" style="text;strokeColor=none;fillColor=none;align=left;verticalAlign=top;spacingLeft=4;spacingRight=4;overflow=hidden;rotatable=0;points=[[0,0.5],[1,0.5]];portConstraint=eastwest;whiteSpace=wrap;html=1;fontFamily=Helvetica;fontSize=15;fontColor=#000000;fontStyle=1;labelBorderColor=none;labelBackgroundColor=none;textShadow=0;" parent="SudFrf4cLflyzT05pDyT-89" vertex="1">
          <mxGeometry y="56" width="342" height="26" as="geometry" />
        </mxCell>
        <mxCell id="93_m1jLfWyNL42i5EXpA-78" value="+skin : String" style="text;strokeColor=none;fillColor=none;align=left;verticalAlign=top;spacingLeft=4;spacingRight=4;overflow=hidden;rotatable=0;points=[[0,0.5],[1,0.5]];portConstraint=eastwest;whiteSpace=wrap;html=1;fontFamily=Helvetica;fontSize=15;fontColor=#000000;fontStyle=1;labelBorderColor=none;labelBackgroundColor=none;textShadow=0;" parent="SudFrf4cLflyzT05pDyT-89" vertex="1">
          <mxGeometry y="82" width="342" height="26" as="geometry" />
        </mxCell>
        <mxCell id="KfmZiENBN5u5x_a287lG-12" value="+features : List&amp;lt;String&amp;gt;" style="text;strokeColor=none;fillColor=none;align=left;verticalAlign=top;spacingLeft=4;spacingRight=4;overflow=hidden;rotatable=0;points=[[0,0.5],[1,0.5]];portConstraint=eastwest;whiteSpace=wrap;html=1;fontFamily=Helvetica;fontSize=15;fontColor=#000000;fontStyle=1;labelBorderColor=none;labelBackgroundColor=none;textShadow=0;" parent="SudFrf4cLflyzT05pDyT-89" vertex="1">
          <mxGeometry y="108" width="342" height="26" as="geometry" />
        </mxCell>
        <mxCell id="93_m1jLfWyNL42i5EXpA-77" value="+watt_consumption : Integer" style="text;strokeColor=none;fillColor=none;align=left;verticalAlign=top;spacingLeft=4;spacingRight=4;overflow=hidden;rotatable=0;points=[[0,0.5],[1,0.5]];portConstraint=eastwest;whiteSpace=wrap;html=1;fontFamily=Helvetica;fontSize=15;fontColor=#000000;fontStyle=1;labelBorderColor=none;labelBackgroundColor=none;textShadow=0;" parent="SudFrf4cLflyzT05pDyT-89" vertex="1">
          <mxGeometry y="134" width="342" height="26" as="geometry" />
        </mxCell>
        <mxCell id="5QwQG5rDsZmuha2iQWHT-42" style="edgeStyle=orthogonalEdgeStyle;rounded=0;orthogonalLoop=1;jettySize=auto;html=1;endArrow=block;endFill=0;endSize=10;strokeColor=#000000;strokeWidth=3;textShadow=0;" parent="WIyWlLk6GJQsqaUBKTNV-1" source="SudFrf4cLflyzT05pDyT-90" target="5QwQG5rDsZmuha2iQWHT-35" edge="1">
          <mxGeometry relative="1" as="geometry">
            <Array as="points">
              <mxPoint x="-223" y="1653" />
              <mxPoint x="-512" y="1653" />
            </Array>
          </mxGeometry>
        </mxCell>
        <mxCell id="SudFrf4cLflyzT05pDyT-90" value="PSU" style="swimlane;fontStyle=1;childLayout=stackLayout;horizontal=1;startSize=30;horizontalStack=0;resizeParent=1;resizeParentMax=0;resizeLast=0;collapsible=1;marginBottom=0;whiteSpace=wrap;html=1;textShadow=0;labelBorderColor=none;strokeColor=#000000;fontColor=#000000;labelBackgroundColor=none;fillColor=none;fontSize=15;strokeWidth=3;rounded=1;shadow=0;dashed=0;align=center;verticalAlign=middle;arcSize=4;fontFamily=Helvetica;" parent="WIyWlLk6GJQsqaUBKTNV-1" vertex="1">
          <mxGeometry x="-323" y="1690" width="214" height="134" as="geometry" />
        </mxCell>
        <mxCell id="93_m1jLfWyNL42i5EXpA-84" value="+size_type : String" style="text;strokeColor=none;fillColor=none;align=left;verticalAlign=top;spacingLeft=4;spacingRight=4;overflow=hidden;rotatable=0;points=[[0,0.5],[1,0.5]];portConstraint=eastwest;whiteSpace=wrap;html=1;fontFamily=Helvetica;fontSize=15;fontColor=#000000;fontStyle=1;labelBorderColor=none;labelBackgroundColor=none;textShadow=0;" parent="SudFrf4cLflyzT05pDyT-90" vertex="1">
          <mxGeometry y="30" width="214" height="26" as="geometry" />
        </mxCell>
        <mxCell id="93_m1jLfWyNL42i5EXpA-80" value="+max_wattage : Integer" style="text;strokeColor=none;fillColor=none;align=left;verticalAlign=top;spacingLeft=4;spacingRight=4;overflow=hidden;rotatable=0;points=[[0,0.5],[1,0.5]];portConstraint=eastwest;whiteSpace=wrap;html=1;fontFamily=Helvetica;fontSize=15;fontColor=#000000;fontStyle=1;labelBorderColor=none;labelBackgroundColor=none;textShadow=0;" parent="SudFrf4cLflyzT05pDyT-90" vertex="1">
          <mxGeometry y="56" width="214" height="26" as="geometry" />
        </mxCell>
        <mxCell id="93_m1jLfWyNL42i5EXpA-81" value="+certification : String" style="text;strokeColor=none;fillColor=none;align=left;verticalAlign=top;spacingLeft=4;spacingRight=4;overflow=hidden;rotatable=0;points=[[0,0.5],[1,0.5]];portConstraint=eastwest;whiteSpace=wrap;html=1;fontFamily=Helvetica;fontSize=15;fontColor=#000000;fontStyle=1;labelBorderColor=none;labelBackgroundColor=none;textShadow=0;" parent="SudFrf4cLflyzT05pDyT-90" vertex="1">
          <mxGeometry y="82" width="214" height="26" as="geometry" />
        </mxCell>
        <mxCell id="93_m1jLfWyNL42i5EXpA-82" value="+modularity_type : String" style="text;strokeColor=none;fillColor=none;align=left;verticalAlign=top;spacingLeft=4;spacingRight=4;overflow=hidden;rotatable=0;points=[[0,0.5],[1,0.5]];portConstraint=eastwest;whiteSpace=wrap;html=1;fontFamily=Helvetica;fontSize=15;fontColor=#000000;fontStyle=1;labelBorderColor=none;labelBackgroundColor=none;textShadow=0;" parent="SudFrf4cLflyzT05pDyT-90" vertex="1">
          <mxGeometry y="108" width="214" height="26" as="geometry" />
        </mxCell>
        <mxCell id="5QwQG5rDsZmuha2iQWHT-41" style="edgeStyle=orthogonalEdgeStyle;rounded=0;orthogonalLoop=1;jettySize=auto;html=1;endSize=10;endArrow=block;endFill=0;strokeWidth=3;strokeColor=#000000;textShadow=0;" parent="WIyWlLk6GJQsqaUBKTNV-1" source="SudFrf4cLflyzT05pDyT-91" target="5QwQG5rDsZmuha2iQWHT-35" edge="1">
          <mxGeometry relative="1" as="geometry" />
        </mxCell>
        <mxCell id="SudFrf4cLflyzT05pDyT-91" value="Motherboard" style="swimlane;fontStyle=1;childLayout=stackLayout;horizontal=1;startSize=30;horizontalStack=0;resizeParent=1;resizeParentMax=0;resizeLast=0;collapsible=1;marginBottom=0;whiteSpace=wrap;html=1;textShadow=0;labelBorderColor=none;strokeColor=#000000;fontColor=#000000;labelBackgroundColor=none;fillColor=none;fontSize=15;strokeWidth=3;rounded=1;shadow=0;dashed=0;align=center;verticalAlign=middle;arcSize=4;fontFamily=Helvetica;" parent="WIyWlLk6GJQsqaUBKTNV-1" vertex="1">
          <mxGeometry x="-643.75" y="1690" width="263.5" height="290" as="geometry" />
        </mxCell>
        <mxCell id="93_m1jLfWyNL42i5EXpA-62" value="+size_type : String" style="text;strokeColor=none;fillColor=none;align=left;verticalAlign=top;spacingLeft=4;spacingRight=4;overflow=hidden;rotatable=0;points=[[0,0.5],[1,0.5]];portConstraint=eastwest;whiteSpace=wrap;html=1;fontFamily=Helvetica;fontSize=15;fontColor=#000000;fontStyle=1;labelBorderColor=none;labelBackgroundColor=none;textShadow=0;" parent="SudFrf4cLflyzT05pDyT-91" vertex="1">
          <mxGeometry y="30" width="263.5" height="26" as="geometry" />
        </mxCell>
        <mxCell id="93_m1jLfWyNL42i5EXpA-87" value="+socket : String" style="text;strokeColor=none;fillColor=none;align=left;verticalAlign=top;spacingLeft=4;spacingRight=4;overflow=hidden;rotatable=0;points=[[0,0.5],[1,0.5]];portConstraint=eastwest;whiteSpace=wrap;html=1;fontFamily=Helvetica;fontSize=15;fontColor=#000000;fontStyle=1;labelBorderColor=none;labelBackgroundColor=none;textShadow=0;" parent="SudFrf4cLflyzT05pDyT-91" vertex="1">
          <mxGeometry y="56" width="263.5" height="26" as="geometry" />
        </mxCell>
        <mxCell id="93_m1jLfWyNL42i5EXpA-88" value="+chipset : String" style="text;strokeColor=none;fillColor=none;align=left;verticalAlign=top;spacingLeft=4;spacingRight=4;overflow=hidden;rotatable=0;points=[[0,0.5],[1,0.5]];portConstraint=eastwest;whiteSpace=wrap;html=1;fontFamily=Helvetica;fontSize=15;fontColor=#000000;fontStyle=1;labelBorderColor=none;labelBackgroundColor=none;textShadow=0;" parent="SudFrf4cLflyzT05pDyT-91" vertex="1">
          <mxGeometry y="82" width="263.5" height="26" as="geometry" />
        </mxCell>
        <mxCell id="93_m1jLfWyNL42i5EXpA-89" value="+memory_channels : List&amp;lt;String&amp;gt;" style="text;strokeColor=none;fillColor=none;align=left;verticalAlign=top;spacingLeft=4;spacingRight=4;overflow=hidden;rotatable=0;points=[[0,0.5],[1,0.5]];portConstraint=eastwest;whiteSpace=wrap;html=1;fontFamily=Helvetica;fontSize=15;fontColor=#000000;fontStyle=1;labelBorderColor=none;labelBackgroundColor=none;textShadow=0;" parent="SudFrf4cLflyzT05pDyT-91" vertex="1">
          <mxGeometry y="108" width="263.5" height="26" as="geometry" />
        </mxCell>
        <mxCell id="93_m1jLfWyNL42i5EXpA-91" value="+pcie_slots : List&amp;lt;String&amp;gt;" style="text;strokeColor=none;fillColor=none;align=left;verticalAlign=top;spacingLeft=4;spacingRight=4;overflow=hidden;rotatable=0;points=[[0,0.5],[1,0.5]];portConstraint=eastwest;whiteSpace=wrap;html=1;fontFamily=Helvetica;fontSize=15;fontColor=#000000;fontStyle=1;labelBorderColor=none;labelBackgroundColor=none;textShadow=0;" parent="SudFrf4cLflyzT05pDyT-91" vertex="1">
          <mxGeometry y="134" width="263.5" height="26" as="geometry" />
        </mxCell>
        <mxCell id="93_m1jLfWyNL42i5EXpA-92" value="+external_io : List&amp;lt;String&amp;gt;" style="text;strokeColor=none;fillColor=none;align=left;verticalAlign=top;spacingLeft=4;spacingRight=4;overflow=hidden;rotatable=0;points=[[0,0.5],[1,0.5]];portConstraint=eastwest;whiteSpace=wrap;html=1;fontFamily=Helvetica;fontSize=15;fontColor=#000000;fontStyle=1;labelBorderColor=none;labelBackgroundColor=none;textShadow=0;" parent="SudFrf4cLflyzT05pDyT-91" vertex="1">
          <mxGeometry y="160" width="263.5" height="26" as="geometry" />
        </mxCell>
        <mxCell id="93_m1jLfWyNL42i5EXpA-97" value="+rgb_lighting : Boolean" style="text;strokeColor=none;fillColor=none;align=left;verticalAlign=top;spacingLeft=4;spacingRight=4;overflow=hidden;rotatable=0;points=[[0,0.5],[1,0.5]];portConstraint=eastwest;whiteSpace=wrap;html=1;fontFamily=Helvetica;fontSize=15;fontColor=#000000;fontStyle=1;labelBorderColor=none;labelBackgroundColor=none;textShadow=0;" parent="SudFrf4cLflyzT05pDyT-91" vertex="1">
          <mxGeometry y="186" width="263.5" height="26" as="geometry" />
        </mxCell>
        <mxCell id="KfmZiENBN5u5x_a287lG-16" value="+watt_consumption : Integer" style="text;strokeColor=none;fillColor=none;align=left;verticalAlign=top;spacingLeft=4;spacingRight=4;overflow=hidden;rotatable=0;points=[[0,0.5],[1,0.5]];portConstraint=eastwest;whiteSpace=wrap;html=1;fontFamily=Helvetica;fontSize=15;fontColor=#000000;fontStyle=1;labelBorderColor=none;labelBackgroundColor=none;textShadow=0;" parent="SudFrf4cLflyzT05pDyT-91" vertex="1">
          <mxGeometry y="212" width="263.5" height="26" as="geometry" />
        </mxCell>
        <mxCell id="KfmZiENBN5u5x_a287lG-26" value="+ram_type : String" style="text;strokeColor=none;fillColor=none;align=left;verticalAlign=top;spacingLeft=4;spacingRight=4;overflow=hidden;rotatable=0;points=[[0,0.5],[1,0.5]];portConstraint=eastwest;whiteSpace=wrap;html=1;fontFamily=Helvetica;fontSize=15;fontColor=#000000;fontStyle=1;labelBorderColor=none;labelBackgroundColor=none;textShadow=0;" parent="SudFrf4cLflyzT05pDyT-91" vertex="1">
          <mxGeometry y="238" width="263.5" height="26" as="geometry" />
        </mxCell>
        <mxCell id="KfmZiENBN5u5x_a287lG-14" value="+nvme_slots : Integer" style="text;strokeColor=none;fillColor=none;align=left;verticalAlign=top;spacingLeft=4;spacingRight=4;overflow=hidden;rotatable=0;points=[[0,0.5],[1,0.5]];portConstraint=eastwest;whiteSpace=wrap;html=1;fontFamily=Helvetica;fontSize=15;fontColor=#000000;fontStyle=1;labelBorderColor=none;labelBackgroundColor=none;textShadow=0;" parent="SudFrf4cLflyzT05pDyT-91" vertex="1">
          <mxGeometry y="264" width="263.5" height="26" as="geometry" />
        </mxCell>
        <mxCell id="KfmZiENBN5u5x_a287lG-1" style="edgeStyle=orthogonalEdgeStyle;rounded=0;orthogonalLoop=1;jettySize=auto;html=1;strokeColor=#000000;strokeWidth=3;endArrow=block;endFill=0;endSize=10;" parent="WIyWlLk6GJQsqaUBKTNV-1" source="SudFrf4cLflyzT05pDyT-92" target="5QwQG5rDsZmuha2iQWHT-35" edge="1">
          <mxGeometry relative="1" as="geometry">
            <Array as="points">
              <mxPoint x="-814" y="1653" />
              <mxPoint x="-512" y="1653" />
            </Array>
          </mxGeometry>
        </mxCell>
        <mxCell id="SudFrf4cLflyzT05pDyT-92" value="Cooling System" style="swimlane;fontStyle=1;childLayout=stackLayout;horizontal=1;startSize=30;horizontalStack=0;resizeParent=1;resizeParentMax=0;resizeLast=0;collapsible=1;marginBottom=0;whiteSpace=wrap;html=1;textShadow=0;labelBorderColor=none;strokeColor=#000000;fontColor=#000000;labelBackgroundColor=none;fillColor=none;fontSize=15;strokeWidth=3;rounded=1;shadow=0;dashed=0;align=center;verticalAlign=middle;arcSize=4;fontFamily=Helvetica;" parent="WIyWlLk6GJQsqaUBKTNV-1" vertex="1">
          <mxGeometry x="-934" y="1695" width="240" height="108" as="geometry" />
        </mxCell>
        <mxCell id="93_m1jLfWyNL42i5EXpA-42" value="+type : String" style="text;strokeColor=none;fillColor=none;align=left;verticalAlign=top;spacingLeft=4;spacingRight=4;overflow=hidden;rotatable=0;points=[[0,0.5],[1,0.5]];portConstraint=eastwest;whiteSpace=wrap;html=1;fontFamily=Helvetica;fontSize=15;fontColor=#000000;fontStyle=1;labelBorderColor=none;labelBackgroundColor=none;textShadow=0;" parent="SudFrf4cLflyzT05pDyT-92" vertex="1">
          <mxGeometry y="30" width="240" height="26" as="geometry" />
        </mxCell>
        <mxCell id="KfmZiENBN5u5x_a287lG-28" value="+active_cooling : Boolean" style="text;strokeColor=none;fillColor=none;align=left;verticalAlign=top;spacingLeft=4;spacingRight=4;overflow=hidden;rotatable=0;points=[[0,0.5],[1,0.5]];portConstraint=eastwest;whiteSpace=wrap;html=1;fontFamily=Helvetica;fontSize=15;fontColor=#000000;fontStyle=1;labelBorderColor=none;labelBackgroundColor=none;textShadow=0;" parent="SudFrf4cLflyzT05pDyT-92" vertex="1">
          <mxGeometry y="56" width="240" height="26" as="geometry" />
        </mxCell>
        <mxCell id="93_m1jLfWyNL42i5EXpA-46" value="+watt_consumption : Integer" style="text;strokeColor=none;fillColor=none;align=left;verticalAlign=top;spacingLeft=4;spacingRight=4;overflow=hidden;rotatable=0;points=[[0,0.5],[1,0.5]];portConstraint=eastwest;whiteSpace=wrap;html=1;fontFamily=Helvetica;fontSize=15;fontColor=#000000;fontStyle=1;labelBorderColor=none;labelBackgroundColor=none;textShadow=0;" parent="SudFrf4cLflyzT05pDyT-92" vertex="1">
          <mxGeometry y="82" width="240" height="26" as="geometry" />
        </mxCell>
        <mxCell id="KfmZiENBN5u5x_a287lG-25" style="edgeStyle=orthogonalEdgeStyle;rounded=0;orthogonalLoop=1;jettySize=auto;html=1;strokeColor=#000000;strokeWidth=3;endArrow=block;endFill=0;endSize=10;" parent="WIyWlLk6GJQsqaUBKTNV-1" source="SudFrf4cLflyzT05pDyT-93" target="5QwQG5rDsZmuha2iQWHT-29" edge="1">
          <mxGeometry relative="1" as="geometry">
            <Array as="points">
              <mxPoint x="-1127" y="1959" />
              <mxPoint x="-1297" y="1959" />
            </Array>
          </mxGeometry>
        </mxCell>
        <mxCell id="SudFrf4cLflyzT05pDyT-93" value="Drive" style="swimlane;fontStyle=1;childLayout=stackLayout;horizontal=1;startSize=30;horizontalStack=0;resizeParent=1;resizeParentMax=0;resizeLast=0;collapsible=1;marginBottom=0;whiteSpace=wrap;html=1;textShadow=0;labelBorderColor=none;strokeColor=#000000;fontColor=#000000;labelBackgroundColor=none;fillColor=none;fontSize=15;strokeWidth=3;rounded=1;shadow=0;dashed=0;align=center;verticalAlign=middle;arcSize=4;fontFamily=Helvetica;" parent="WIyWlLk6GJQsqaUBKTNV-1" vertex="1">
          <mxGeometry x="-1242.5" y="1983" width="232" height="186" as="geometry" />
        </mxCell>
        <mxCell id="93_m1jLfWyNL42i5EXpA-53" value="+storage_type : String" style="text;strokeColor=none;fillColor=none;align=left;verticalAlign=top;spacingLeft=4;spacingRight=4;overflow=hidden;rotatable=0;points=[[0,0.5],[1,0.5]];portConstraint=eastwest;whiteSpace=wrap;html=1;fontFamily=Helvetica;fontSize=15;fontColor=#000000;fontStyle=1;labelBorderColor=none;labelBackgroundColor=none;textShadow=0;" parent="SudFrf4cLflyzT05pDyT-93" vertex="1">
          <mxGeometry y="30" width="232" height="26" as="geometry" />
        </mxCell>
        <mxCell id="93_m1jLfWyNL42i5EXpA-54" value="+size : Integer" style="text;strokeColor=none;fillColor=none;align=left;verticalAlign=top;spacingLeft=4;spacingRight=4;overflow=hidden;rotatable=0;points=[[0,0.5],[1,0.5]];portConstraint=eastwest;whiteSpace=wrap;html=1;fontFamily=Helvetica;fontSize=15;fontColor=#000000;fontStyle=1;labelBorderColor=none;labelBackgroundColor=none;textShadow=0;" parent="SudFrf4cLflyzT05pDyT-93" vertex="1">
          <mxGeometry y="56" width="232" height="26" as="geometry" />
        </mxCell>
        <mxCell id="93_m1jLfWyNL42i5EXpA-55" value="+read_speed : Integer" style="text;strokeColor=none;fillColor=none;align=left;verticalAlign=top;spacingLeft=4;spacingRight=4;overflow=hidden;rotatable=0;points=[[0,0.5],[1,0.5]];portConstraint=eastwest;whiteSpace=wrap;html=1;fontFamily=Helvetica;fontSize=15;fontColor=#000000;fontStyle=1;labelBorderColor=none;labelBackgroundColor=none;textShadow=0;" parent="SudFrf4cLflyzT05pDyT-93" vertex="1">
          <mxGeometry y="82" width="232" height="26" as="geometry" />
        </mxCell>
        <mxCell id="93_m1jLfWyNL42i5EXpA-56" value="+write_speed : Integer" style="text;strokeColor=none;fillColor=none;align=left;verticalAlign=top;spacingLeft=4;spacingRight=4;overflow=hidden;rotatable=0;points=[[0,0.5],[1,0.5]];portConstraint=eastwest;whiteSpace=wrap;html=1;fontFamily=Helvetica;fontSize=15;fontColor=#000000;fontStyle=1;labelBorderColor=none;labelBackgroundColor=none;textShadow=0;" parent="SudFrf4cLflyzT05pDyT-93" vertex="1">
          <mxGeometry y="108" width="232" height="26" as="geometry" />
        </mxCell>
        <mxCell id="93_m1jLfWyNL42i5EXpA-58" value="+buffer_size : Integer" style="text;strokeColor=none;fillColor=none;align=left;verticalAlign=top;spacingLeft=4;spacingRight=4;overflow=hidden;rotatable=0;points=[[0,0.5],[1,0.5]];portConstraint=eastwest;whiteSpace=wrap;html=1;fontFamily=Helvetica;fontSize=15;fontColor=#000000;fontStyle=1;labelBorderColor=none;labelBackgroundColor=none;textShadow=0;" parent="SudFrf4cLflyzT05pDyT-93" vertex="1">
          <mxGeometry y="134" width="232" height="26" as="geometry" />
        </mxCell>
        <mxCell id="KfmZiENBN5u5x_a287lG-13" value="+watt_consumption : Integer" style="text;strokeColor=none;fillColor=none;align=left;verticalAlign=top;spacingLeft=4;spacingRight=4;overflow=hidden;rotatable=0;points=[[0,0.5],[1,0.5]];portConstraint=eastwest;whiteSpace=wrap;html=1;fontFamily=Helvetica;fontSize=15;fontColor=#000000;fontStyle=1;labelBorderColor=none;labelBackgroundColor=none;textShadow=0;" parent="SudFrf4cLflyzT05pDyT-93" vertex="1">
          <mxGeometry y="160" width="232" height="26" as="geometry" />
        </mxCell>
        <mxCell id="5QwQG5rDsZmuha2iQWHT-45" style="edgeStyle=orthogonalEdgeStyle;rounded=0;orthogonalLoop=1;jettySize=auto;html=1;endArrow=block;endFill=0;endSize=10;strokeColor=#000000;strokeWidth=3;textShadow=0;" parent="WIyWlLk6GJQsqaUBKTNV-1" source="SudFrf4cLflyzT05pDyT-94" target="5QwQG5rDsZmuha2iQWHT-35" edge="1">
          <mxGeometry relative="1" as="geometry">
            <Array as="points">
              <mxPoint x="-352" y="1653" />
              <mxPoint x="-512" y="1653" />
            </Array>
          </mxGeometry>
        </mxCell>
        <mxCell id="SudFrf4cLflyzT05pDyT-94" value="Decoration" style="swimlane;fontStyle=1;childLayout=stackLayout;horizontal=1;startSize=30;horizontalStack=0;resizeParent=1;resizeParentMax=0;resizeLast=0;collapsible=1;marginBottom=0;whiteSpace=wrap;html=1;textShadow=0;labelBorderColor=none;strokeColor=#000000;fontColor=#000000;labelBackgroundColor=none;fillColor=none;fontSize=15;strokeWidth=3;rounded=1;shadow=0;dashed=0;align=center;verticalAlign=middle;arcSize=4;fontFamily=Helvetica;" parent="WIyWlLk6GJQsqaUBKTNV-1" vertex="1">
          <mxGeometry x="-465" y="2008.5" width="232" height="82" as="geometry" />
        </mxCell>
        <mxCell id="KfmZiENBN5u5x_a287lG-11" value="+type : String" style="text;strokeColor=none;fillColor=none;align=left;verticalAlign=top;spacingLeft=4;spacingRight=4;overflow=hidden;rotatable=0;points=[[0,0.5],[1,0.5]];portConstraint=eastwest;whiteSpace=wrap;html=1;fontFamily=Helvetica;fontSize=15;fontColor=#000000;fontStyle=1;labelBorderColor=none;labelBackgroundColor=none;textShadow=0;" parent="SudFrf4cLflyzT05pDyT-94" vertex="1">
          <mxGeometry y="30" width="232" height="26" as="geometry" />
        </mxCell>
        <mxCell id="93_m1jLfWyNL42i5EXpA-79" value="+watt_consumption : Integer" style="text;strokeColor=none;fillColor=none;align=left;verticalAlign=top;spacingLeft=4;spacingRight=4;overflow=hidden;rotatable=0;points=[[0,0.5],[1,0.5]];portConstraint=eastwest;whiteSpace=wrap;html=1;fontFamily=Helvetica;fontSize=15;fontColor=#000000;fontStyle=1;labelBorderColor=none;labelBackgroundColor=none;textShadow=0;" parent="SudFrf4cLflyzT05pDyT-94" vertex="1">
          <mxGeometry y="56" width="232" height="26" as="geometry" />
        </mxCell>
        <mxCell id="5QwQG5rDsZmuha2iQWHT-30" style="edgeStyle=orthogonalEdgeStyle;rounded=0;orthogonalLoop=1;jettySize=auto;html=1;strokeWidth=3;strokeColor=#000000;endArrow=block;endFill=0;endSize=10;textShadow=0;" parent="WIyWlLk6GJQsqaUBKTNV-1" source="SudFrf4cLflyzT05pDyT-95" target="5QwQG5rDsZmuha2iQWHT-29" edge="1">
          <mxGeometry relative="1" as="geometry">
            <Array as="points">
              <mxPoint x="-1468" y="1653" />
              <mxPoint x="-1297" y="1653" />
            </Array>
          </mxGeometry>
        </mxCell>
        <mxCell id="SudFrf4cLflyzT05pDyT-95" value="CPU" style="swimlane;fontStyle=1;childLayout=stackLayout;horizontal=1;startSize=30;horizontalStack=0;resizeParent=1;resizeParentMax=0;resizeLast=0;collapsible=1;marginBottom=0;whiteSpace=wrap;html=1;textShadow=0;labelBorderColor=none;strokeColor=#000000;fontColor=#000000;labelBackgroundColor=none;fillColor=none;fontSize=15;strokeWidth=3;rounded=1;shadow=0;dashed=0;align=center;verticalAlign=middle;arcSize=4;fontFamily=Helvetica;" parent="WIyWlLk6GJQsqaUBKTNV-1" vertex="1">
          <mxGeometry x="-1581" y="1695" width="226" height="238" as="geometry" />
        </mxCell>
        <mxCell id="KfmZiENBN5u5x_a287lG-15" value="+architecture : String" style="text;strokeColor=none;fillColor=none;align=left;verticalAlign=top;spacingLeft=4;spacingRight=4;overflow=hidden;rotatable=0;points=[[0,0.5],[1,0.5]];portConstraint=eastwest;whiteSpace=wrap;html=1;fontFamily=Helvetica;fontSize=15;fontColor=#000000;fontStyle=1;labelBorderColor=none;labelBackgroundColor=none;textShadow=0;" parent="SudFrf4cLflyzT05pDyT-95" vertex="1">
          <mxGeometry y="30" width="226" height="26" as="geometry" />
        </mxCell>
        <mxCell id="93_m1jLfWyNL42i5EXpA-26" value="+socket : String" style="text;strokeColor=none;fillColor=none;align=left;verticalAlign=top;spacingLeft=4;spacingRight=4;overflow=hidden;rotatable=0;points=[[0,0.5],[1,0.5]];portConstraint=eastwest;whiteSpace=wrap;html=1;fontFamily=Helvetica;fontSize=15;fontColor=#000000;fontStyle=1;labelBorderColor=none;labelBackgroundColor=none;textShadow=0;" parent="SudFrf4cLflyzT05pDyT-95" vertex="1">
          <mxGeometry y="56" width="226" height="26" as="geometry" />
        </mxCell>
        <mxCell id="93_m1jLfWyNL42i5EXpA-22" value="+cores : Integer" style="text;strokeColor=none;fillColor=none;align=left;verticalAlign=top;spacingLeft=4;spacingRight=4;overflow=hidden;rotatable=0;points=[[0,0.5],[1,0.5]];portConstraint=eastwest;whiteSpace=wrap;html=1;fontFamily=Helvetica;fontSize=15;fontColor=#000000;fontStyle=1;labelBorderColor=none;labelBackgroundColor=none;textShadow=0;" parent="SudFrf4cLflyzT05pDyT-95" vertex="1">
          <mxGeometry y="82" width="226" height="26" as="geometry" />
        </mxCell>
        <mxCell id="93_m1jLfWyNL42i5EXpA-35" value="+threads : Integer" style="text;strokeColor=none;fillColor=none;align=left;verticalAlign=top;spacingLeft=4;spacingRight=4;overflow=hidden;rotatable=0;points=[[0,0.5],[1,0.5]];portConstraint=eastwest;whiteSpace=wrap;html=1;fontFamily=Helvetica;fontSize=15;fontColor=#000000;fontStyle=1;labelBorderColor=none;labelBackgroundColor=none;textShadow=0;" parent="SudFrf4cLflyzT05pDyT-95" vertex="1">
          <mxGeometry y="108" width="226" height="26" as="geometry" />
        </mxCell>
        <mxCell id="93_m1jLfWyNL42i5EXpA-37" value="+base_clock : Integer" style="text;strokeColor=none;fillColor=none;align=left;verticalAlign=top;spacingLeft=4;spacingRight=4;overflow=hidden;rotatable=0;points=[[0,0.5],[1,0.5]];portConstraint=eastwest;whiteSpace=wrap;html=1;fontFamily=Helvetica;fontSize=15;fontColor=#000000;fontStyle=1;labelBorderColor=none;labelBackgroundColor=none;textShadow=0;" parent="SudFrf4cLflyzT05pDyT-95" vertex="1">
          <mxGeometry y="134" width="226" height="26" as="geometry" />
        </mxCell>
        <mxCell id="93_m1jLfWyNL42i5EXpA-57" value="+oc_clock : Integer" style="text;strokeColor=none;fillColor=none;align=left;verticalAlign=top;spacingLeft=4;spacingRight=4;overflow=hidden;rotatable=0;points=[[0,0.5],[1,0.5]];portConstraint=eastwest;whiteSpace=wrap;html=1;fontFamily=Helvetica;fontSize=15;fontColor=#000000;fontStyle=1;labelBorderColor=none;labelBackgroundColor=none;textShadow=0;" parent="SudFrf4cLflyzT05pDyT-95" vertex="1">
          <mxGeometry y="160" width="226" height="26" as="geometry" />
        </mxCell>
        <mxCell id="KfmZiENBN5u5x_a287lG-6" value="+caches : List&amp;lt;String&amp;gt;" style="text;strokeColor=none;fillColor=none;align=left;verticalAlign=top;spacingLeft=4;spacingRight=4;overflow=hidden;rotatable=0;points=[[0,0.5],[1,0.5]];portConstraint=eastwest;whiteSpace=wrap;html=1;fontFamily=Helvetica;fontSize=15;fontColor=#000000;fontStyle=1;labelBorderColor=none;labelBackgroundColor=none;textShadow=0;" parent="SudFrf4cLflyzT05pDyT-95" vertex="1">
          <mxGeometry y="186" width="226" height="26" as="geometry" />
        </mxCell>
        <mxCell id="93_m1jLfWyNL42i5EXpA-68" value="+watt_consumption : Integer" style="text;strokeColor=none;fillColor=none;align=left;verticalAlign=top;spacingLeft=4;spacingRight=4;overflow=hidden;rotatable=0;points=[[0,0.5],[1,0.5]];portConstraint=eastwest;whiteSpace=wrap;html=1;fontFamily=Helvetica;fontSize=15;fontColor=#000000;fontStyle=1;labelBorderColor=none;labelBackgroundColor=none;textShadow=0;" parent="SudFrf4cLflyzT05pDyT-95" vertex="1">
          <mxGeometry y="212" width="226" height="26" as="geometry" />
        </mxCell>
        <mxCell id="93_m1jLfWyNL42i5EXpA-10" style="edgeStyle=orthogonalEdgeStyle;rounded=0;orthogonalLoop=1;jettySize=auto;html=1;endArrow=none;endFill=0;strokeWidth=3;strokeColor=#000000;textShadow=0;" parent="WIyWlLk6GJQsqaUBKTNV-1" source="SudFrf4cLflyzT05pDyT-97" target="SudFrf4cLflyzT05pDyT-51" edge="1">
          <mxGeometry relative="1" as="geometry">
            <Array as="points">
              <mxPoint x="-1130" y="778" />
              <mxPoint x="-1130" y="778" />
            </Array>
          </mxGeometry>
        </mxCell>
        <mxCell id="SudFrf4cLflyzT05pDyT-97" value="Purchase" style="swimlane;fontStyle=1;childLayout=stackLayout;horizontal=1;startSize=26;fillColor=none;horizontalStack=0;resizeParent=1;resizeParentMax=0;resizeLast=0;collapsible=1;marginBottom=0;whiteSpace=wrap;html=1;rounded=1;shadow=0;dashed=0;strokeColor=#000000;strokeWidth=3;align=center;verticalAlign=middle;arcSize=4;fontFamily=Helvetica;fontSize=15;fontColor=#000000;labelBorderColor=none;labelBackgroundColor=none;textShadow=0;" parent="WIyWlLk6GJQsqaUBKTNV-1" vertex="1">
          <mxGeometry x="-1594.5" y="708" width="328" height="139" as="geometry">
            <mxRectangle x="-536" y="518" width="73" height="30" as="alternateBounds" />
          </mxGeometry>
        </mxCell>
        <mxCell id="SudFrf4cLflyzT05pDyT-98" value="+build : Build" style="text;strokeColor=none;fillColor=none;align=left;verticalAlign=top;spacingLeft=4;spacingRight=4;overflow=hidden;rotatable=0;points=[[0,0.5],[1,0.5]];portConstraint=eastwest;whiteSpace=wrap;html=1;fontFamily=Helvetica;fontSize=15;fontColor=#000000;fontStyle=1;labelBorderColor=none;labelBackgroundColor=none;textShadow=0;" parent="SudFrf4cLflyzT05pDyT-97" vertex="1">
          <mxGeometry y="26" width="328" height="26" as="geometry" />
        </mxCell>
        <mxCell id="SudFrf4cLflyzT05pDyT-99" value="+billing_information : Billing Information" style="text;strokeColor=none;fillColor=none;align=left;verticalAlign=top;spacingLeft=4;spacingRight=4;overflow=hidden;rotatable=0;points=[[0,0.5],[1,0.5]];portConstraint=eastwest;whiteSpace=wrap;html=1;fontFamily=Helvetica;fontSize=15;fontColor=#000000;fontStyle=1;labelBorderColor=none;labelBackgroundColor=none;textShadow=0;" parent="SudFrf4cLflyzT05pDyT-97" vertex="1">
          <mxGeometry y="52" width="328" height="27" as="geometry" />
        </mxCell>
        <mxCell id="Mn4rACtxwUHcPZqOqvtR-32" value="+price : Float" style="text;strokeColor=none;fillColor=none;align=left;verticalAlign=top;spacingLeft=4;spacingRight=4;overflow=hidden;rotatable=0;points=[[0,0.5],[1,0.5]];portConstraint=eastwest;whiteSpace=wrap;html=1;fontFamily=Helvetica;fontSize=15;fontColor=#000000;fontStyle=1;labelBorderColor=none;labelBackgroundColor=none;textShadow=0;" parent="SudFrf4cLflyzT05pDyT-97" vertex="1">
          <mxGeometry y="79" width="328" height="26" as="geometry" />
        </mxCell>
        <mxCell id="Mn4rACtxwUHcPZqOqvtR-33" value="" style="line;strokeWidth=1;fillColor=none;align=left;verticalAlign=middle;spacingTop=-1;spacingLeft=3;spacingRight=3;rotatable=0;labelPosition=right;points=[];portConstraint=eastwest;strokeColor=inherit;" parent="SudFrf4cLflyzT05pDyT-97" vertex="1">
          <mxGeometry y="105" width="328" height="8" as="geometry" />
        </mxCell>
        <mxCell id="SudFrf4cLflyzT05pDyT-100" value="+placeOrder(): void" style="text;strokeColor=none;fillColor=none;align=left;verticalAlign=top;spacingLeft=4;spacingRight=4;overflow=hidden;rotatable=0;points=[[0,0.5],[1,0.5]];portConstraint=eastwest;whiteSpace=wrap;html=1;fontFamily=Helvetica;fontSize=15;fontColor=#000000;fontStyle=1;labelBorderColor=none;labelBackgroundColor=none;textShadow=0;" parent="SudFrf4cLflyzT05pDyT-97" vertex="1">
          <mxGeometry y="113" width="328" height="26" as="geometry" />
        </mxCell>
        <mxCell id="SudFrf4cLflyzT05pDyT-102" value="1" style="edgeLabel;html=1;align=center;verticalAlign=middle;resizable=0;points=[];fontSize=15;labelBackgroundColor=none;textShadow=0;labelBorderColor=none;fontColor=#000000;fontStyle=1" parent="WIyWlLk6GJQsqaUBKTNV-1" vertex="1" connectable="0">
          <mxGeometry x="-1055" y="365.9966666666667" as="geometry">
            <mxPoint x="348" y="65" as="offset" />
          </mxGeometry>
        </mxCell>
        <mxCell id="5QwQG5rDsZmuha2iQWHT-1" style="edgeStyle=orthogonalEdgeStyle;rounded=0;orthogonalLoop=1;jettySize=auto;html=1;strokeColor=#000000;strokeWidth=3;endArrow=none;endFill=0;startArrow=diamond;startFill=0;startSize=10;textShadow=0;" parent="WIyWlLk6GJQsqaUBKTNV-1" source="SudFrf4cLflyzT05pDyT-106" target="SudFrf4cLflyzT05pDyT-51" edge="1">
          <mxGeometry relative="1" as="geometry">
            <Array as="points">
              <mxPoint x="-399" y="638" />
              <mxPoint x="-570" y="638" />
            </Array>
          </mxGeometry>
        </mxCell>
        <mxCell id="SudFrf4cLflyzT05pDyT-106" value="Wall of Builds" style="swimlane;fontStyle=1;childLayout=stackLayout;horizontal=1;startSize=26;fillColor=none;horizontalStack=0;resizeParent=1;resizeParentMax=0;resizeLast=0;collapsible=1;marginBottom=0;whiteSpace=wrap;html=1;rounded=1;shadow=0;dashed=0;strokeColor=#000000;strokeWidth=3;align=center;verticalAlign=middle;arcSize=4;fontFamily=Helvetica;fontSize=15;fontColor=#000000;labelBorderColor=none;labelBackgroundColor=none;textShadow=0;" parent="WIyWlLk6GJQsqaUBKTNV-1" vertex="1">
          <mxGeometry x="-514" y="486" width="229" height="112" as="geometry">
            <mxRectangle x="-536" y="518" width="73" height="30" as="alternateBounds" />
          </mxGeometry>
        </mxCell>
        <mxCell id="Mn4rACtxwUHcPZqOqvtR-26" value="+builds : List&amp;lt;Build&amp;gt;" style="text;strokeColor=none;fillColor=none;align=left;verticalAlign=top;spacingLeft=4;spacingRight=4;overflow=hidden;rotatable=0;points=[[0,0.5],[1,0.5]];portConstraint=eastwest;whiteSpace=wrap;html=1;fontFamily=Helvetica;fontSize=15;fontColor=#000000;fontStyle=1;labelBorderColor=none;labelBackgroundColor=none;textShadow=0;" parent="SudFrf4cLflyzT05pDyT-106" vertex="1">
          <mxGeometry y="26" width="229" height="26" as="geometry" />
        </mxCell>
        <mxCell id="Mn4rACtxwUHcPZqOqvtR-29" value="" style="line;strokeWidth=1;fillColor=none;align=left;verticalAlign=middle;spacingTop=-1;spacingLeft=3;spacingRight=3;rotatable=0;labelPosition=right;points=[];portConstraint=eastwest;strokeColor=inherit;" parent="SudFrf4cLflyzT05pDyT-106" vertex="1">
          <mxGeometry y="52" width="229" height="8" as="geometry" />
        </mxCell>
        <mxCell id="SudFrf4cLflyzT05pDyT-107" value="+showBuilds(): List&amp;lt;Build&amp;gt;" style="text;strokeColor=none;fillColor=none;align=left;verticalAlign=top;spacingLeft=4;spacingRight=4;overflow=hidden;rotatable=0;points=[[0,0.5],[1,0.5]];portConstraint=eastwest;whiteSpace=wrap;html=1;fontFamily=Helvetica;fontSize=15;fontColor=#000000;fontStyle=1;labelBorderColor=none;labelBackgroundColor=none;textShadow=0;" parent="SudFrf4cLflyzT05pDyT-106" vertex="1">
          <mxGeometry y="60" width="229" height="26" as="geometry" />
        </mxCell>
        <mxCell id="Mn4rACtxwUHcPZqOqvtR-28" value="+postBuild(build: Build): void" style="text;strokeColor=none;fillColor=none;align=left;verticalAlign=top;spacingLeft=4;spacingRight=4;overflow=hidden;rotatable=0;points=[[0,0.5],[1,0.5]];portConstraint=eastwest;whiteSpace=wrap;html=1;fontFamily=Helvetica;fontSize=15;fontColor=#000000;fontStyle=1;labelBorderColor=none;labelBackgroundColor=none;textShadow=0;" parent="SudFrf4cLflyzT05pDyT-106" vertex="1">
          <mxGeometry y="86" width="229" height="26" as="geometry" />
        </mxCell>
        <mxCell id="SudFrf4cLflyzT05pDyT-110" value="1" style="edgeLabel;html=1;align=center;verticalAlign=middle;resizable=0;points=[];fontSize=15;labelBackgroundColor=none;textShadow=0;labelBorderColor=none;fontColor=#000000;fontStyle=1" parent="WIyWlLk6GJQsqaUBKTNV-1" vertex="1" connectable="0">
          <mxGeometry x="-836" y="281.99666666666667" as="geometry">
            <mxPoint x="-22" y="5" as="offset" />
          </mxGeometry>
        </mxCell>
        <mxCell id="SudFrf4cLflyzT05pDyT-111" value="*" style="edgeLabel;html=1;align=center;verticalAlign=middle;resizable=0;points=[];fontSize=15;labelBackgroundColor=none;textShadow=0;labelBorderColor=none;fontColor=#000000;fontStyle=1" parent="WIyWlLk6GJQsqaUBKTNV-1" vertex="1" connectable="0">
          <mxGeometry x="-549" y="645.9966666666668" as="geometry">
            <mxPoint x="-10" y="6" as="offset" />
          </mxGeometry>
        </mxCell>
        <mxCell id="7G_LxE-Dx79k5qHvBQP1-17" style="edgeStyle=orthogonalEdgeStyle;rounded=0;orthogonalLoop=1;jettySize=auto;html=1;entryX=0;entryY=0.5;entryDx=0;entryDy=0;endArrow=none;endFill=0;strokeColor=#000000;strokeWidth=3;textShadow=0;" parent="WIyWlLk6GJQsqaUBKTNV-1" source="SudFrf4cLflyzT05pDyT-115" target="SudFrf4cLflyzT05pDyT-14" edge="1">
          <mxGeometry relative="1" as="geometry">
            <Array as="points">
              <mxPoint x="-834" y="369" />
            </Array>
          </mxGeometry>
        </mxCell>
        <mxCell id="5QwQG5rDsZmuha2iQWHT-48" style="edgeStyle=orthogonalEdgeStyle;rounded=0;orthogonalLoop=1;jettySize=auto;html=1;strokeWidth=3;strokeColor=#000000;endArrow=none;endFill=0;textShadow=0;" parent="WIyWlLk6GJQsqaUBKTNV-1" source="SudFrf4cLflyzT05pDyT-115" target="SudFrf4cLflyzT05pDyT-51" edge="1">
          <mxGeometry relative="1" as="geometry">
            <Array as="points">
              <mxPoint x="-841" y="476" />
            </Array>
          </mxGeometry>
        </mxCell>
        <mxCell id="SudFrf4cLflyzT05pDyT-115" value="Rating" style="swimlane;fontStyle=1;childLayout=stackLayout;horizontal=1;startSize=26;fillColor=none;horizontalStack=0;resizeParent=1;resizeParentMax=0;resizeLast=0;collapsible=1;marginBottom=0;whiteSpace=wrap;html=1;rounded=1;shadow=0;dashed=0;strokeColor=#000000;strokeWidth=3;align=center;verticalAlign=middle;arcSize=4;fontFamily=Helvetica;fontSize=15;fontColor=#000000;labelBorderColor=none;labelBackgroundColor=none;textShadow=0;" parent="WIyWlLk6GJQsqaUBKTNV-1" vertex="1">
          <mxGeometry x="-1283" y="334" width="349" height="214" as="geometry">
            <mxRectangle x="-536" y="518" width="73" height="30" as="alternateBounds" />
          </mxGeometry>
        </mxCell>
        <mxCell id="SudFrf4cLflyzT05pDyT-116" value="+builder : Builder" style="text;strokeColor=none;fillColor=none;align=left;verticalAlign=top;spacingLeft=4;spacingRight=4;overflow=hidden;rotatable=0;points=[[0,0.5],[1,0.5]];portConstraint=eastwest;whiteSpace=wrap;html=1;fontFamily=Helvetica;fontSize=15;fontColor=#000000;fontStyle=1;labelBorderColor=none;labelBackgroundColor=none;textShadow=0;" parent="SudFrf4cLflyzT05pDyT-115" vertex="1">
          <mxGeometry y="26" width="349" height="26" as="geometry" />
        </mxCell>
        <mxCell id="SudFrf4cLflyzT05pDyT-117" value="+build : Build" style="text;strokeColor=none;fillColor=none;align=left;verticalAlign=top;spacingLeft=4;spacingRight=4;overflow=hidden;rotatable=0;points=[[0,0.5],[1,0.5]];portConstraint=eastwest;whiteSpace=wrap;html=1;fontFamily=Helvetica;fontSize=15;fontColor=#000000;fontStyle=1;labelBorderColor=none;labelBackgroundColor=none;textShadow=0;" parent="SudFrf4cLflyzT05pDyT-115" vertex="1">
          <mxGeometry y="52" width="349" height="26" as="geometry" />
        </mxCell>
        <mxCell id="7G_LxE-Dx79k5qHvBQP1-19" value="+liked : Boolean" style="text;strokeColor=none;fillColor=none;align=left;verticalAlign=top;spacingLeft=4;spacingRight=4;overflow=hidden;rotatable=0;points=[[0,0.5],[1,0.5]];portConstraint=eastwest;whiteSpace=wrap;html=1;fontFamily=Helvetica;fontSize=15;fontColor=#000000;fontStyle=1;labelBorderColor=none;labelBackgroundColor=none;textShadow=0;" parent="SudFrf4cLflyzT05pDyT-115" vertex="1">
          <mxGeometry y="78" width="349" height="26" as="geometry" />
        </mxCell>
        <mxCell id="7G_LxE-Dx79k5qHvBQP1-20" value="+disliked : Boolean" style="text;strokeColor=none;fillColor=none;align=left;verticalAlign=top;spacingLeft=4;spacingRight=4;overflow=hidden;rotatable=0;points=[[0,0.5],[1,0.5]];portConstraint=eastwest;whiteSpace=wrap;html=1;fontFamily=Helvetica;fontSize=15;fontColor=#000000;fontStyle=1;labelBorderColor=none;labelBackgroundColor=none;textShadow=0;" parent="SudFrf4cLflyzT05pDyT-115" vertex="1">
          <mxGeometry y="104" width="349" height="26" as="geometry" />
        </mxCell>
        <mxCell id="Mn4rACtxwUHcPZqOqvtR-39" value="+comment : String" style="text;strokeColor=none;fillColor=none;align=left;verticalAlign=top;spacingLeft=4;spacingRight=4;overflow=hidden;rotatable=0;points=[[0,0.5],[1,0.5]];portConstraint=eastwest;whiteSpace=wrap;html=1;fontFamily=Helvetica;fontSize=15;fontColor=#000000;fontStyle=1;labelBorderColor=none;labelBackgroundColor=none;textShadow=0;" parent="SudFrf4cLflyzT05pDyT-115" vertex="1">
          <mxGeometry y="130" width="349" height="26" as="geometry" />
        </mxCell>
        <mxCell id="joswxLEihgmwv76m3Ww4-0" value="" style="line;strokeWidth=1;fillColor=none;align=left;verticalAlign=middle;spacingTop=-1;spacingLeft=3;spacingRight=3;rotatable=0;labelPosition=right;points=[];portConstraint=eastwest;strokeColor=inherit;" parent="SudFrf4cLflyzT05pDyT-115" vertex="1">
          <mxGeometry y="156" width="349" height="8" as="geometry" />
        </mxCell>
        <mxCell id="SudFrf4cLflyzT05pDyT-118" value="+updateRating(comment: String, liked: Boolean, disliked: Boolean): void" style="text;strokeColor=none;fillColor=none;align=left;verticalAlign=top;spacingLeft=4;spacingRight=4;overflow=hidden;rotatable=0;points=[[0,0.5],[1,0.5]];portConstraint=eastwest;whiteSpace=wrap;html=1;fontFamily=Helvetica;fontSize=15;fontColor=#000000;fontStyle=1;labelBorderColor=none;labelBackgroundColor=none;textShadow=0;" parent="SudFrf4cLflyzT05pDyT-115" vertex="1">
          <mxGeometry y="164" width="349" height="50" as="geometry" />
        </mxCell>
        <mxCell id="SudFrf4cLflyzT05pDyT-121" value="*" style="edgeLabel;html=1;align=center;verticalAlign=middle;resizable=0;points=[];fontSize=15;labelBackgroundColor=none;textShadow=0;labelBorderColor=none;fontColor=#000000;fontStyle=1" parent="WIyWlLk6GJQsqaUBKTNV-1" vertex="1" connectable="0">
          <mxGeometry x="-184.5" y="1274.996666666667" as="geometry">
            <mxPoint x="-19" y="8" as="offset" />
          </mxGeometry>
        </mxCell>
        <mxCell id="SudFrf4cLflyzT05pDyT-124" value="*" style="edgeLabel;html=1;align=center;verticalAlign=middle;resizable=0;points=[];fontSize=15;labelBackgroundColor=none;textShadow=0;labelBorderColor=none;fontColor=#000000;fontStyle=1" parent="WIyWlLk6GJQsqaUBKTNV-1" vertex="1" connectable="0">
          <mxGeometry x="-909" y="360.9966666666668" as="geometry">
            <mxPoint x="-14" y="-3" as="offset" />
          </mxGeometry>
        </mxCell>
        <mxCell id="93_m1jLfWyNL42i5EXpA-9" style="edgeStyle=orthogonalEdgeStyle;rounded=0;orthogonalLoop=1;jettySize=auto;html=1;endArrow=none;endFill=0;strokeWidth=3;strokeColor=#000000;textShadow=0;" parent="WIyWlLk6GJQsqaUBKTNV-1" source="7G_LxE-Dx79k5qHvBQP1-0" target="SudFrf4cLflyzT05pDyT-67" edge="1">
          <mxGeometry relative="1" as="geometry" />
        </mxCell>
        <mxCell id="7G_LxE-Dx79k5qHvBQP1-0" value="Inventory Item" style="swimlane;fontStyle=1;childLayout=stackLayout;horizontal=1;startSize=26;fillColor=none;horizontalStack=0;resizeParent=1;resizeParentMax=0;resizeLast=0;collapsible=1;marginBottom=0;whiteSpace=wrap;html=1;rounded=1;shadow=0;dashed=0;strokeColor=#000000;strokeWidth=3;align=center;verticalAlign=middle;arcSize=4;fontFamily=Helvetica;fontSize=15;fontColor=#000000;labelBorderColor=none;labelBackgroundColor=none;textShadow=0;" parent="WIyWlLk6GJQsqaUBKTNV-1" vertex="1">
          <mxGeometry x="-367.5" y="1290" width="303" height="78" as="geometry">
            <mxRectangle x="-536" y="518" width="73" height="30" as="alternateBounds" />
          </mxGeometry>
        </mxCell>
        <mxCell id="7G_LxE-Dx79k5qHvBQP1-1" value="+component_name : String" style="text;strokeColor=none;fillColor=none;align=left;verticalAlign=top;spacingLeft=4;spacingRight=4;overflow=hidden;rotatable=0;points=[[0,0.5],[1,0.5]];portConstraint=eastwest;whiteSpace=wrap;html=1;fontFamily=Helvetica;fontSize=15;fontColor=#000000;fontStyle=1;labelBorderColor=none;labelBackgroundColor=none;textShadow=0;" parent="7G_LxE-Dx79k5qHvBQP1-0" vertex="1">
          <mxGeometry y="26" width="303" height="26" as="geometry" />
        </mxCell>
        <mxCell id="93_m1jLfWyNL42i5EXpA-13" value="+stock : Integer" style="text;strokeColor=none;fillColor=none;align=left;verticalAlign=top;spacingLeft=4;spacingRight=4;overflow=hidden;rotatable=0;points=[[0,0.5],[1,0.5]];portConstraint=eastwest;whiteSpace=wrap;html=1;fontFamily=Helvetica;fontSize=15;fontColor=#000000;fontStyle=1;labelBorderColor=none;labelBackgroundColor=none;textShadow=0;" parent="7G_LxE-Dx79k5qHvBQP1-0" vertex="1">
          <mxGeometry y="52" width="303" height="26" as="geometry" />
        </mxCell>
        <mxCell id="7G_LxE-Dx79k5qHvBQP1-10" value="1" style="edgeLabel;html=1;align=center;verticalAlign=middle;resizable=0;points=[];fontSize=15;labelBackgroundColor=none;textShadow=0;labelBorderColor=none;fontColor=#000000;fontStyle=1" parent="WIyWlLk6GJQsqaUBKTNV-1" vertex="1" connectable="0">
          <mxGeometry x="-552" y="1332.9966666666667" as="geometry">
            <mxPoint x="22" y="-22" as="offset" />
          </mxGeometry>
        </mxCell>
        <mxCell id="93_m1jLfWyNL42i5EXpA-12" value="1" style="edgeLabel;html=1;align=center;verticalAlign=middle;resizable=0;points=[];fontSize=15;labelBackgroundColor=none;textShadow=0;labelBorderColor=none;fontColor=#000000;fontStyle=1" parent="WIyWlLk6GJQsqaUBKTNV-1" vertex="1" connectable="0">
          <mxGeometry x="-324.5" y="1180.9966666666667" as="geometry">
            <mxPoint x="90" y="73" as="offset" />
          </mxGeometry>
        </mxCell>
        <mxCell id="93_m1jLfWyNL42i5EXpA-14" value="1" style="edgeLabel;html=1;align=center;verticalAlign=middle;resizable=0;points=[];fontSize=15;labelBackgroundColor=none;textShadow=0;labelBorderColor=none;fontColor=#000000;fontStyle=1" parent="WIyWlLk6GJQsqaUBKTNV-1" vertex="1" connectable="0">
          <mxGeometry x="-617" y="1128.9966666666667" as="geometry">
            <mxPoint x="11" y="-3" as="offset" />
          </mxGeometry>
        </mxCell>
        <mxCell id="93_m1jLfWyNL42i5EXpA-18" style="edgeStyle=orthogonalEdgeStyle;rounded=0;orthogonalLoop=1;jettySize=auto;html=1;endArrow=none;endFill=0;strokeWidth=3;strokeColor=#000000;endSize=6;startSize=10;startArrow=diamond;startFill=0;textShadow=0;" parent="WIyWlLk6GJQsqaUBKTNV-1" source="93_m1jLfWyNL42i5EXpA-15" target="7G_LxE-Dx79k5qHvBQP1-0" edge="1">
          <mxGeometry relative="1" as="geometry" />
        </mxCell>
        <mxCell id="93_m1jLfWyNL42i5EXpA-15" value="Inventory" style="swimlane;fontStyle=1;childLayout=stackLayout;horizontal=1;startSize=26;fillColor=none;horizontalStack=0;resizeParent=1;resizeParentMax=0;resizeLast=0;collapsible=1;marginBottom=0;whiteSpace=wrap;html=1;rounded=1;shadow=0;dashed=0;strokeColor=#000000;strokeWidth=3;align=center;verticalAlign=middle;arcSize=4;fontFamily=Helvetica;fontSize=15;fontColor=#000000;labelBorderColor=none;labelBackgroundColor=none;textShadow=0;" parent="WIyWlLk6GJQsqaUBKTNV-1" vertex="1">
          <mxGeometry x="-367.5" y="1188" width="303" height="52" as="geometry">
            <mxRectangle x="-536" y="518" width="73" height="30" as="alternateBounds" />
          </mxGeometry>
        </mxCell>
        <mxCell id="93_m1jLfWyNL42i5EXpA-16" value="+items : List&amp;lt;Inventory Item&amp;gt;" style="text;strokeColor=none;fillColor=none;align=left;verticalAlign=top;spacingLeft=4;spacingRight=4;overflow=hidden;rotatable=0;points=[[0,0.5],[1,0.5]];portConstraint=eastwest;whiteSpace=wrap;html=1;fontFamily=Helvetica;fontSize=15;fontColor=#000000;fontStyle=1;labelBorderColor=none;labelBackgroundColor=none;textShadow=0;" parent="93_m1jLfWyNL42i5EXpA-15" vertex="1">
          <mxGeometry y="26" width="303" height="26" as="geometry" />
        </mxCell>
        <mxCell id="93_m1jLfWyNL42i5EXpA-19" value="1" style="edgeLabel;html=1;align=center;verticalAlign=middle;resizable=0;points=[];fontSize=15;labelBackgroundColor=none;textShadow=0;labelBorderColor=none;fontColor=#000000;fontStyle=1" parent="WIyWlLk6GJQsqaUBKTNV-1" vertex="1" connectable="0">
          <mxGeometry x="-1338" y="686.9966666666667" as="geometry">
            <mxPoint x="90" y="73" as="offset" />
          </mxGeometry>
        </mxCell>
        <mxCell id="5QwQG5rDsZmuha2iQWHT-3" value="*" style="edgeLabel;html=1;align=center;verticalAlign=middle;resizable=0;points=[];fontSize=15;labelBackgroundColor=none;textShadow=0;labelBorderColor=none;fontColor=#000000;fontStyle=1" parent="WIyWlLk6GJQsqaUBKTNV-1" vertex="1" connectable="0">
          <mxGeometry x="-893" y="443.9966666666668" as="geometry">
            <mxPoint x="-28" y="21" as="offset" />
          </mxGeometry>
        </mxCell>
        <mxCell id="5QwQG5rDsZmuha2iQWHT-4" value="1" style="edgeLabel;html=1;align=center;verticalAlign=middle;resizable=0;points=[];fontSize=15;labelBackgroundColor=none;textShadow=0;labelBorderColor=none;fontColor=#000000;fontStyle=1" parent="WIyWlLk6GJQsqaUBKTNV-1" vertex="1" connectable="0">
          <mxGeometry x="-916" y="568.9966666666667" as="geometry">
            <mxPoint x="90" y="73" as="offset" />
          </mxGeometry>
        </mxCell>
        <mxCell id="5QwQG5rDsZmuha2iQWHT-12" style="edgeStyle=orthogonalEdgeStyle;rounded=0;orthogonalLoop=1;jettySize=auto;html=1;endArrow=none;endFill=0;strokeColor=#000000;strokeWidth=3;startArrow=diamond;startFill=0;startSize=10;textShadow=0;" parent="WIyWlLk6GJQsqaUBKTNV-1" source="5QwQG5rDsZmuha2iQWHT-5" target="SudFrf4cLflyzT05pDyT-51" edge="1">
          <mxGeometry relative="1" as="geometry">
            <Array as="points">
              <mxPoint x="-686" y="661" />
              <mxPoint x="-686" y="661" />
            </Array>
          </mxGeometry>
        </mxCell>
        <mxCell id="5QwQG5rDsZmuha2iQWHT-5" value="Library" style="swimlane;fontStyle=1;childLayout=stackLayout;horizontal=1;startSize=26;fillColor=none;horizontalStack=0;resizeParent=1;resizeParentMax=0;resizeLast=0;collapsible=1;marginBottom=0;whiteSpace=wrap;html=1;rounded=1;shadow=0;dashed=0;strokeColor=#000000;strokeWidth=3;align=center;verticalAlign=middle;arcSize=4;fontFamily=Helvetica;fontSize=15;fontColor=#000000;labelBorderColor=none;labelBackgroundColor=none;textShadow=0;" parent="WIyWlLk6GJQsqaUBKTNV-1" vertex="1">
          <mxGeometry x="-792" y="481" width="202" height="113" as="geometry" />
        </mxCell>
        <mxCell id="Mn4rACtxwUHcPZqOqvtR-23" value="+builds : List&amp;lt;Build&amp;gt;" style="text;strokeColor=none;fillColor=none;align=left;verticalAlign=top;spacingLeft=4;spacingRight=4;overflow=hidden;rotatable=0;points=[[0,0.5],[1,0.5]];portConstraint=eastwest;whiteSpace=wrap;html=1;fontFamily=Helvetica;fontSize=15;fontColor=#000000;fontStyle=1;labelBorderColor=none;labelBackgroundColor=none;textShadow=0;" parent="5QwQG5rDsZmuha2iQWHT-5" vertex="1">
          <mxGeometry y="26" width="202" height="30" as="geometry" />
        </mxCell>
        <mxCell id="Mn4rACtxwUHcPZqOqvtR-25" value="" style="line;strokeWidth=1;fillColor=none;align=left;verticalAlign=middle;spacingTop=-1;spacingLeft=3;spacingRight=3;rotatable=0;labelPosition=right;points=[];portConstraint=eastwest;strokeColor=inherit;" parent="5QwQG5rDsZmuha2iQWHT-5" vertex="1">
          <mxGeometry y="56" width="202" height="8" as="geometry" />
        </mxCell>
        <mxCell id="5QwQG5rDsZmuha2iQWHT-7" value="+inLibrary(buildName: String): Boolean" style="text;strokeColor=none;fillColor=none;align=left;verticalAlign=top;spacingLeft=4;spacingRight=4;overflow=hidden;rotatable=0;points=[[0,0.5],[1,0.5]];portConstraint=eastwest;whiteSpace=wrap;html=1;fontFamily=Helvetica;fontSize=15;fontColor=#000000;fontStyle=1;labelBorderColor=none;labelBackgroundColor=none;textShadow=0;" parent="5QwQG5rDsZmuha2iQWHT-5" vertex="1">
          <mxGeometry y="64" width="202" height="49" as="geometry" />
        </mxCell>
        <mxCell id="5QwQG5rDsZmuha2iQWHT-9" value="1" style="edgeLabel;html=1;align=center;verticalAlign=middle;resizable=0;points=[];fontSize=15;labelBackgroundColor=none;textShadow=0;labelBorderColor=none;fontColor=#000000;fontStyle=1" parent="WIyWlLk6GJQsqaUBKTNV-1" vertex="1" connectable="0">
          <mxGeometry x="-885" y="356.9966666666667" as="geometry">
            <mxPoint x="33" y="-3" as="offset" />
          </mxGeometry>
        </mxCell>
        <mxCell id="5QwQG5rDsZmuha2iQWHT-10" value="1" style="edgeLabel;html=1;align=center;verticalAlign=middle;resizable=0;points=[];fontSize=15;labelBackgroundColor=none;textShadow=0;labelBorderColor=none;fontColor=#000000;fontStyle=1" parent="WIyWlLk6GJQsqaUBKTNV-1" vertex="1" connectable="0">
          <mxGeometry x="-1020" y="401.9966666666667" as="geometry">
            <mxPoint x="348" y="65" as="offset" />
          </mxGeometry>
        </mxCell>
        <mxCell id="5QwQG5rDsZmuha2iQWHT-15" value="1" style="edgeLabel;html=1;align=center;verticalAlign=middle;resizable=0;points=[];fontSize=15;labelBackgroundColor=none;textShadow=0;labelBorderColor=none;fontColor=#000000;fontStyle=1" parent="WIyWlLk6GJQsqaUBKTNV-1" vertex="1" connectable="0">
          <mxGeometry x="-1058" y="547.9966666666667" as="geometry">
            <mxPoint x="348" y="65" as="offset" />
          </mxGeometry>
        </mxCell>
        <mxCell id="5QwQG5rDsZmuha2iQWHT-16" value="1" style="edgeLabel;html=1;align=center;verticalAlign=middle;resizable=0;points=[];fontSize=15;labelBackgroundColor=none;textShadow=0;labelBorderColor=none;fontColor=#000000;fontStyle=1" parent="WIyWlLk6GJQsqaUBKTNV-1" vertex="1" connectable="0">
          <mxGeometry x="-371" y="629.0033333333333" as="geometry">
            <mxPoint x="-16" y="-1" as="offset" />
          </mxGeometry>
        </mxCell>
        <mxCell id="5QwQG5rDsZmuha2iQWHT-17" value="*" style="edgeLabel;html=1;align=center;verticalAlign=middle;resizable=0;points=[];fontSize=15;labelBackgroundColor=none;textShadow=0;labelBorderColor=none;fontColor=#000000;fontStyle=1" parent="WIyWlLk6GJQsqaUBKTNV-1" vertex="1" connectable="0">
          <mxGeometry x="-667" y="640.9966666666668" as="geometry">
            <mxPoint x="-10" y="6" as="offset" />
          </mxGeometry>
        </mxCell>
        <mxCell id="5QwQG5rDsZmuha2iQWHT-18" value="1" style="edgeLabel;html=1;align=center;verticalAlign=middle;resizable=0;points=[];fontSize=15;labelBackgroundColor=none;textShadow=0;labelBorderColor=none;fontColor=#000000;fontStyle=1" parent="WIyWlLk6GJQsqaUBKTNV-1" vertex="1" connectable="0">
          <mxGeometry x="-1608" y="460.99666666666667" as="geometry">
            <mxPoint x="190" y="65" as="offset" />
          </mxGeometry>
        </mxCell>
        <mxCell id="5QwQG5rDsZmuha2iQWHT-20" value="1" style="edgeLabel;html=1;align=center;verticalAlign=middle;resizable=0;points=[];fontSize=15;labelBackgroundColor=none;textShadow=0;labelBorderColor=none;fontColor=#000000;fontStyle=1" parent="WIyWlLk6GJQsqaUBKTNV-1" vertex="1" connectable="0">
          <mxGeometry x="-1605" y="624.9966666666667" as="geometry">
            <mxPoint x="190" y="65" as="offset" />
          </mxGeometry>
        </mxCell>
        <mxCell id="5QwQG5rDsZmuha2iQWHT-23" value="Spell Checker" style="swimlane;fontStyle=1;childLayout=stackLayout;horizontal=1;startSize=30;horizontalStack=0;resizeParent=1;resizeParentMax=0;resizeLast=0;collapsible=1;marginBottom=0;whiteSpace=wrap;html=1;textShadow=0;labelBorderColor=none;strokeColor=#000000;fontColor=#000000;labelBackgroundColor=none;fillColor=none;fontSize=15;strokeWidth=3;rounded=1;shadow=0;dashed=0;align=center;verticalAlign=middle;arcSize=4;fontFamily=Helvetica;swimlaneLine=1;" parent="WIyWlLk6GJQsqaUBKTNV-1" vertex="1">
          <mxGeometry x="-1274.5" y="594" width="332" height="56" as="geometry" />
        </mxCell>
        <mxCell id="Mn4rACtxwUHcPZqOqvtR-38" value="static spellCheck(comment: String): Boolean" style="text;strokeColor=none;fillColor=none;align=left;verticalAlign=top;spacingLeft=4;spacingRight=4;overflow=hidden;rotatable=0;points=[[0,0.5],[1,0.5]];portConstraint=eastwest;whiteSpace=wrap;html=1;fontFamily=Helvetica;fontSize=15;fontColor=#000000;fontStyle=1;labelBorderColor=none;labelBackgroundColor=none;textShadow=0;" parent="5QwQG5rDsZmuha2iQWHT-23" vertex="1">
          <mxGeometry y="30" width="332" height="26" as="geometry" />
        </mxCell>
        <mxCell id="5QwQG5rDsZmuha2iQWHT-37" style="edgeStyle=orthogonalEdgeStyle;rounded=0;orthogonalLoop=1;jettySize=auto;html=1;endArrow=block;endFill=0;endSize=10;strokeColor=#000000;strokeWidth=3;textShadow=0;" parent="WIyWlLk6GJQsqaUBKTNV-1" source="5QwQG5rDsZmuha2iQWHT-29" target="SudFrf4cLflyzT05pDyT-67" edge="1">
          <mxGeometry relative="1" as="geometry">
            <Array as="points">
              <mxPoint x="-1289" y="1502" />
              <mxPoint x="-860" y="1502" />
            </Array>
          </mxGeometry>
        </mxCell>
        <mxCell id="5QwQG5rDsZmuha2iQWHT-29" value="Basic Component" style="swimlane;fontStyle=1;childLayout=stackLayout;horizontal=1;startSize=30;horizontalStack=0;resizeParent=1;resizeParentMax=0;resizeLast=0;collapsible=1;marginBottom=0;whiteSpace=wrap;html=1;textShadow=0;labelBorderColor=none;strokeColor=#000000;fontColor=#000000;labelBackgroundColor=none;fillColor=none;fontSize=15;strokeWidth=3;rounded=1;shadow=0;dashed=0;align=center;verticalAlign=middle;arcSize=4;fontFamily=Helvetica;" parent="WIyWlLk6GJQsqaUBKTNV-1" vertex="1">
          <mxGeometry x="-1377" y="1526" width="160" height="80" as="geometry" />
        </mxCell>
        <mxCell id="5QwQG5rDsZmuha2iQWHT-38" style="edgeStyle=orthogonalEdgeStyle;rounded=0;orthogonalLoop=1;jettySize=auto;html=1;strokeWidth=3;endArrow=block;endFill=0;strokeColor=#000000;endSize=10;textShadow=0;" parent="WIyWlLk6GJQsqaUBKTNV-1" source="5QwQG5rDsZmuha2iQWHT-35" target="SudFrf4cLflyzT05pDyT-67" edge="1">
          <mxGeometry relative="1" as="geometry">
            <Array as="points">
              <mxPoint x="-504" y="1502" />
              <mxPoint x="-860" y="1502" />
            </Array>
          </mxGeometry>
        </mxCell>
        <mxCell id="5QwQG5rDsZmuha2iQWHT-35" value="Dependent Components" style="swimlane;fontStyle=1;childLayout=stackLayout;horizontal=1;startSize=30;horizontalStack=0;resizeParent=1;resizeParentMax=0;resizeLast=0;collapsible=1;marginBottom=0;whiteSpace=wrap;html=1;textShadow=0;labelBorderColor=none;strokeColor=#000000;fontColor=#000000;labelBackgroundColor=none;fillColor=none;fontSize=15;strokeWidth=3;rounded=1;shadow=0;dashed=0;align=center;verticalAlign=middle;arcSize=4;fontFamily=Helvetica;" parent="WIyWlLk6GJQsqaUBKTNV-1" vertex="1">
          <mxGeometry x="-726.5" y="1526" width="429" height="56" as="geometry" />
        </mxCell>
        <mxCell id="Mn4rACtxwUHcPZqOqvtR-10" value="+selectedBasicComponents(CPU, GPU, RAM, Drive): void" style="text;strokeColor=none;fillColor=none;align=left;verticalAlign=top;spacingLeft=4;spacingRight=4;overflow=hidden;rotatable=0;points=[[0,0.5],[1,0.5]];portConstraint=eastwest;whiteSpace=wrap;html=1;fontFamily=Helvetica;fontSize=15;fontColor=#000000;fontStyle=1;labelBorderColor=none;labelBackgroundColor=none;textShadow=0;" parent="5QwQG5rDsZmuha2iQWHT-35" vertex="1">
          <mxGeometry y="30" width="429" height="26" as="geometry" />
        </mxCell>
        <mxCell id="5QwQG5rDsZmuha2iQWHT-46" value="*" style="edgeLabel;html=1;align=center;verticalAlign=middle;resizable=0;points=[];fontSize=15;labelBackgroundColor=none;textShadow=0;labelBorderColor=none;fontColor=#000000;fontStyle=0" parent="WIyWlLk6GJQsqaUBKTNV-1" vertex="1" connectable="0">
          <mxGeometry x="-764" y="1162.996666666667" as="geometry">
            <mxPoint x="-25" y="4" as="offset" />
          </mxGeometry>
        </mxCell>
        <mxCell id="5QwQG5rDsZmuha2iQWHT-47" value="1" style="edgeLabel;html=1;align=center;verticalAlign=middle;resizable=0;points=[];fontSize=15;labelBackgroundColor=none;textShadow=0;labelBorderColor=none;fontColor=#000000;fontStyle=1" parent="WIyWlLk6GJQsqaUBKTNV-1" vertex="1" connectable="0">
          <mxGeometry x="-480" y="1236.9966666666667" as="geometry">
            <mxPoint x="90" y="73" as="offset" />
          </mxGeometry>
        </mxCell>
        <mxCell id="oO6vd9l6yAj-1YgE8Lrl-3" style="edgeStyle=orthogonalEdgeStyle;rounded=0;orthogonalLoop=1;jettySize=auto;html=1;endArrow=diamond;endFill=0;endSize=10;strokeWidth=3;strokeColor=#000000;textShadow=0;" parent="WIyWlLk6GJQsqaUBKTNV-1" source="oO6vd9l6yAj-1YgE8Lrl-0" target="SudFrf4cLflyzT05pDyT-34" edge="1">
          <mxGeometry relative="1" as="geometry" />
        </mxCell>
        <mxCell id="oO6vd9l6yAj-1YgE8Lrl-0" value="Question" style="swimlane;fontStyle=1;childLayout=stackLayout;horizontal=1;startSize=30;horizontalStack=0;resizeParent=1;resizeParentMax=0;resizeLast=0;collapsible=1;marginBottom=0;whiteSpace=wrap;html=1;textShadow=0;labelBorderColor=none;strokeColor=#000000;fontColor=#000000;labelBackgroundColor=none;fillColor=none;fontSize=15;strokeWidth=3;rounded=1;shadow=0;dashed=0;align=center;verticalAlign=middle;arcSize=4;fontFamily=Helvetica;" parent="WIyWlLk6GJQsqaUBKTNV-1" vertex="1">
          <mxGeometry x="-1628.75" y="1286" width="184.5" height="82" as="geometry" />
        </mxCell>
        <mxCell id="oO6vd9l6yAj-1YgE8Lrl-7" value="+question : String" style="text;strokeColor=none;fillColor=none;align=left;verticalAlign=top;spacingLeft=4;spacingRight=4;overflow=hidden;rotatable=0;points=[[0,0.5],[1,0.5]];portConstraint=eastwest;whiteSpace=wrap;html=1;fontFamily=Helvetica;fontSize=15;fontColor=#000000;fontStyle=1;labelBorderColor=none;labelBackgroundColor=none;textShadow=0;" parent="oO6vd9l6yAj-1YgE8Lrl-0" vertex="1">
          <mxGeometry y="30" width="184.5" height="26" as="geometry" />
        </mxCell>
        <mxCell id="oO6vd9l6yAj-1YgE8Lrl-8" value="+choices : List&amp;lt;String&amp;gt;" style="text;strokeColor=none;fillColor=none;align=left;verticalAlign=top;spacingLeft=4;spacingRight=4;overflow=hidden;rotatable=0;points=[[0,0.5],[1,0.5]];portConstraint=eastwest;whiteSpace=wrap;html=1;fontFamily=Helvetica;fontSize=15;fontColor=#000000;fontStyle=1;labelBorderColor=none;labelBackgroundColor=none;textShadow=0;" parent="oO6vd9l6yAj-1YgE8Lrl-0" vertex="1">
          <mxGeometry y="56" width="184.5" height="26" as="geometry" />
        </mxCell>
        <mxCell id="oO6vd9l6yAj-1YgE8Lrl-4" value="1" style="edgeLabel;html=1;align=center;verticalAlign=middle;resizable=0;points=[];fontSize=15;labelBackgroundColor=none;textShadow=0;labelBorderColor=none;fontColor=#000000;fontStyle=1" parent="WIyWlLk6GJQsqaUBKTNV-1" vertex="1" connectable="0">
          <mxGeometry x="-1608" y="1152.996666666667" as="geometry">
            <mxPoint x="90" y="73" as="offset" />
          </mxGeometry>
        </mxCell>
        <mxCell id="KfmZiENBN5u5x_a287lG-33" style="edgeStyle=orthogonalEdgeStyle;rounded=0;orthogonalLoop=1;jettySize=auto;html=1;strokeColor=#000000;strokeWidth=3;dashed=1;endArrow=open;endFill=0;fontStyle=0" parent="WIyWlLk6GJQsqaUBKTNV-1" source="KfmZiENBN5u5x_a287lG-29" target="oO6vd9l6yAj-1YgE8Lrl-0" edge="1">
          <mxGeometry relative="1" as="geometry" />
        </mxCell>
        <mxCell id="KfmZiENBN5u5x_a287lG-29" value="Answered&amp;nbsp;&lt;span style=&quot;background-color: initial;&quot;&gt;Question&lt;/span&gt;" style="swimlane;fontStyle=1;childLayout=stackLayout;horizontal=1;startSize=30;horizontalStack=0;resizeParent=1;resizeParentMax=0;resizeLast=0;collapsible=1;marginBottom=0;whiteSpace=wrap;html=1;textShadow=0;labelBorderColor=none;strokeColor=#000000;fontColor=#000000;labelBackgroundColor=none;fillColor=none;fontSize=15;strokeWidth=3;rounded=1;shadow=0;dashed=0;align=center;verticalAlign=middle;arcSize=4;fontFamily=Helvetica;" parent="WIyWlLk6GJQsqaUBKTNV-1" vertex="1">
          <mxGeometry x="-1267.5" y="1286" width="184.5" height="82" as="geometry" />
        </mxCell>
        <mxCell id="KfmZiENBN5u5x_a287lG-30" value="+question : String" style="text;strokeColor=none;fillColor=none;align=left;verticalAlign=top;spacingLeft=4;spacingRight=4;overflow=hidden;rotatable=0;points=[[0,0.5],[1,0.5]];portConstraint=eastwest;whiteSpace=wrap;html=1;fontFamily=Helvetica;fontSize=15;fontColor=#000000;fontStyle=1;labelBorderColor=none;labelBackgroundColor=none;textShadow=0;" parent="KfmZiENBN5u5x_a287lG-29" vertex="1">
          <mxGeometry y="30" width="184.5" height="26" as="geometry" />
        </mxCell>
        <mxCell id="KfmZiENBN5u5x_a287lG-31" value="+selected : Integer" style="text;strokeColor=none;fillColor=none;align=left;verticalAlign=top;spacingLeft=4;spacingRight=4;overflow=hidden;rotatable=0;points=[[0,0.5],[1,0.5]];portConstraint=eastwest;whiteSpace=wrap;html=1;fontFamily=Helvetica;fontSize=15;fontColor=#000000;fontStyle=1;labelBorderColor=none;labelBackgroundColor=none;textShadow=0;" parent="KfmZiENBN5u5x_a287lG-29" vertex="1">
          <mxGeometry y="56" width="184.5" height="26" as="geometry" />
        </mxCell>
        <mxCell id="KfmZiENBN5u5x_a287lG-34" value="1" style="edgeLabel;html=1;align=center;verticalAlign=middle;resizable=0;points=[];fontSize=15;labelBackgroundColor=none;textShadow=0;labelBorderColor=none;fontColor=#000000;fontStyle=1" parent="WIyWlLk6GJQsqaUBKTNV-1" vertex="1" connectable="0">
          <mxGeometry x="-951" y="742.9966666666667" as="geometry">
            <mxPoint x="22" y="14" as="offset" />
          </mxGeometry>
        </mxCell>
        <mxCell id="KfmZiENBN5u5x_a287lG-37" style="edgeStyle=orthogonalEdgeStyle;rounded=0;orthogonalLoop=1;jettySize=auto;html=1;strokeWidth=3;strokeColor=#000000;endArrow=open;endFill=0;endSize=10;dashed=1;" parent="WIyWlLk6GJQsqaUBKTNV-1" source="KfmZiENBN5u5x_a287lG-35" target="SudFrf4cLflyzT05pDyT-9" edge="1">
          <mxGeometry relative="1" as="geometry">
            <Array as="points">
              <mxPoint x="-1069" y="237" />
            </Array>
          </mxGeometry>
        </mxCell>
        <mxCell id="KfmZiENBN5u5x_a287lG-35" value="User Status" style="swimlane;fontStyle=1;childLayout=stackLayout;horizontal=1;startSize=26;fillColor=none;horizontalStack=0;resizeParent=1;resizeParentMax=0;resizeLast=0;collapsible=1;marginBottom=0;whiteSpace=wrap;html=1;rounded=1;shadow=0;dashed=0;strokeColor=#000000;strokeWidth=3;align=center;verticalAlign=middle;arcSize=4;fontFamily=Helvetica;fontSize=15;fontColor=#000000;labelBorderColor=none;labelBackgroundColor=none;textShadow=0;" parent="WIyWlLk6GJQsqaUBKTNV-1" vertex="1">
          <mxGeometry x="-1294" y="91" width="444" height="112" as="geometry" />
        </mxCell>
        <mxCell id="KfmZiENBN5u5x_a287lG-36" value="+username : String" style="text;strokeColor=none;fillColor=none;align=left;verticalAlign=top;spacingLeft=4;spacingRight=4;overflow=hidden;rotatable=0;points=[[0,0.5],[1,0.5]];portConstraint=eastwest;whiteSpace=wrap;html=1;fontFamily=Helvetica;fontSize=15;fontColor=#000000;fontStyle=1;labelBorderColor=none;labelBackgroundColor=none;textShadow=0;" parent="KfmZiENBN5u5x_a287lG-35" vertex="1">
          <mxGeometry y="26" width="444" height="26" as="geometry" />
        </mxCell>
        <mxCell id="Mn4rACtxwUHcPZqOqvtR-35" value="+email : String" style="text;strokeColor=none;fillColor=none;align=left;verticalAlign=top;spacingLeft=4;spacingRight=4;overflow=hidden;rotatable=0;points=[[0,0.5],[1,0.5]];portConstraint=eastwest;whiteSpace=wrap;html=1;fontFamily=Helvetica;fontSize=15;fontColor=#000000;fontStyle=1;labelBorderColor=none;labelBackgroundColor=none;textShadow=0;" parent="KfmZiENBN5u5x_a287lG-35" vertex="1">
          <mxGeometry y="52" width="444" height="26" as="geometry" />
        </mxCell>
        <mxCell id="Mn4rACtxwUHcPZqOqvtR-37" value="" style="line;strokeWidth=1;fillColor=none;align=left;verticalAlign=middle;spacingTop=-1;spacingLeft=3;spacingRight=3;rotatable=0;labelPosition=right;points=[];portConstraint=eastwest;strokeColor=inherit;" parent="KfmZiENBN5u5x_a287lG-35" vertex="1">
          <mxGeometry y="78" width="444" height="8" as="geometry" />
        </mxCell>
        <mxCell id="KfmZiENBN5u5x_a287lG-38" value="+isLoggedIn(): Boolean" style="text;strokeColor=none;fillColor=none;align=left;verticalAlign=top;spacingLeft=4;spacingRight=4;overflow=hidden;rotatable=0;points=[[0,0.5],[1,0.5]];portConstraint=eastwest;whiteSpace=wrap;html=1;fontFamily=Helvetica;fontSize=15;fontColor=#000000;fontStyle=1;labelBorderColor=none;labelBackgroundColor=none;textShadow=0;" parent="KfmZiENBN5u5x_a287lG-35" vertex="1">
          <mxGeometry y="86" width="444" height="26" as="geometry" />
        </mxCell>
        <mxCell id="Mn4rACtxwUHcPZqOqvtR-36" style="edgeStyle=orthogonalEdgeStyle;rounded=0;orthogonalLoop=1;jettySize=auto;html=1;strokeWidth=3;strokeColor=#000000;endArrow=open;endFill=0;endSize=10;dashed=1;exitX=0.5;exitY=0;exitDx=0;exitDy=0;entryX=0.51;entryY=0.958;entryDx=0;entryDy=0;entryPerimeter=0;" parent="WIyWlLk6GJQsqaUBKTNV-1" source="5QwQG5rDsZmuha2iQWHT-23" target="SudFrf4cLflyzT05pDyT-118" edge="1">
          <mxGeometry relative="1" as="geometry">
            <mxPoint x="-1106" y="268" as="sourcePoint" />
            <mxPoint x="-1154" y="524" as="targetPoint" />
            <Array as="points">
              <mxPoint x="-1104" y="578" />
              <mxPoint x="-1105" y="578" />
            </Array>
          </mxGeometry>
        </mxCell>
        <mxCell id="Mn4rACtxwUHcPZqOqvtR-41" value="1" style="edgeLabel;html=1;align=center;verticalAlign=middle;resizable=0;points=[];fontSize=15;labelBackgroundColor=none;textShadow=0;labelBorderColor=none;fontColor=#000000;fontStyle=1" parent="WIyWlLk6GJQsqaUBKTNV-1" vertex="1" connectable="0">
          <mxGeometry x="-1283" y="281.99666666666667" as="geometry">
            <mxPoint x="-22" y="5" as="offset" />
          </mxGeometry>
        </mxCell>
      </root>
    </mxGraphModel>
  </diagram>
</mxfile>
